<svg xmlns="http://www.w3.org/2000/svg" width="128" height="128" viewBox="0 0 128 128"><rect width="128" height="128" fill="#fff" rx="14"/><g clip-path="url(#a)"><path fill="#0d5eaf" d="M0 0h128v14.222H0z"/><path fill="#fff" d="M0 14.222h128v14.222H0z"/><path fill="#0d5eaf" d="M0 28.444h128v14.222H0z"/><path fill="#fff" d="M0 42.667h128v14.222H0z"/><path fill="#0d5eaf" d="M0 56.889h128v14.222H0z"/><path fill="#fff" d="M0 71.111h128v14.222H0z"/><path fill="#0d5eaf" d="M0 85.333h128v14.222H0z"/><path fill="#fff" d="M0 99.556h128v14.222H0z"/><path fill="#0d5eaf" d="M0 113.778h128V128H0zM0 0h64v71.111H0z"/><path fill="#fff" d="M26 0h12v71.111H26z"/><path fill="#fff" d="M0 29.556h64v12H0z"/></g><defs><clipPath id="a"><rect width="128" height="128" rx="14"/></clipPath></defs><rect width="124" height="124" x="2" y="2" fill="none" stroke="rgba(0,0,0,.12)" stroke-width="3" rx="12"/></svg>