<svg xmlns="http://www.w3.org/2000/svg" width="32" height="32" fill="none" viewBox="0 0 32 32"><path fill="url(#a)" d="M10.992 25.443 13.5 18.5h5.094l2.237 6.857c.555 1.344-.413 2.83-1.843 2.83h-6.12c-1.391 0-2.357-1.413-1.876-2.744"/><path fill="url(#b)" d="M10.992 25.443 13.5 18.5h5.094l2.237 6.857c.555 1.344-.413 2.83-1.843 2.83h-6.12c-1.391 0-2.357-1.413-1.876-2.744"/><path fill="url(#c)" d="M10.992 25.443 13.5 18.5h5.094l2.237 6.857c.555 1.344-.413 2.83-1.843 2.83h-6.12c-1.391 0-2.357-1.413-1.876-2.744"/><path fill="url(#d)" d="M10.992 25.443 13.5 18.5h5.094l2.237 6.857c.555 1.344-.413 2.83-1.843 2.83h-6.12c-1.391 0-2.357-1.413-1.876-2.744"/><path fill="url(#e)" d="M4 16c0-2.27.63-4.394 1.727-6.205L9.5 8l3.258-3.557A12 12 0 0 1 16 4c1.626 0 3.176.323 4.59.91l2.91 5.59 4.455 4.456Q28 15.472 28 16v2a2 2 0 0 1-2 2H6a2 2 0 0 1-2-2z"/><path fill="url(#f)" d="M4 16c0-2.27.63-4.394 1.727-6.205L9.5 8l3.258-3.557A12 12 0 0 1 16 4c1.626 0 3.176.323 4.59.91l2.91 5.59 4.455 4.456Q28 15.472 28 16v2a2 2 0 0 1-2 2H6a2 2 0 0 1-2-2z"/><path fill="url(#g)" d="M4 16c0-2.27.63-4.394 1.727-6.205L9.5 8l3.258-3.557A12 12 0 0 1 16 4c1.626 0 3.176.323 4.59.91l2.91 5.59 4.455 4.456Q28 15.472 28 16v2a2 2 0 0 1-2 2H6a2 2 0 0 1-2-2z"/><path fill="url(#h)" d="M4 16c0-2.27.63-4.394 1.727-6.205L9.5 8l3.258-3.557A12 12 0 0 1 16 4c1.626 0 3.176.323 4.59.91l2.91 5.59 4.455 4.456Q28 15.472 28 16v2a2 2 0 0 1-2 2H6a2 2 0 0 1-2-2z"/><path fill="url(#i)" d="M4 16c0-2.27.63-4.394 1.727-6.205L9.5 8l3.258-3.557A12 12 0 0 1 16 4c1.626 0 3.176.323 4.59.91l2.91 5.59 4.455 4.456Q28 15.472 28 16v2a2 2 0 0 1-2 2H6a2 2 0 0 1-2-2z"/><path fill="#ffbcbd" d="M12.79 4.434q.079.436.08.896c0 2.74-2.23 4.96-4.97 4.97a4.9 4.9 0 0 1-2.173-.506 12.03 12.03 0 0 1 7.062-5.36"/><path fill="url(#j)" d="M12.79 4.434q.079.436.08.896c0 2.74-2.23 4.96-4.97 4.97a4.9 4.9 0 0 1-2.173-.506 12.03 12.03 0 0 1 7.062-5.36"/><path fill="#ffe1e9" d="M20.573 4.902A6.6 6.6 0 0 0 19.43 8.63a6.632 6.632 0 0 0 8.528 6.353c-.384-4.567-3.324-8.406-7.385-10.081"/><path fill="url(#k)" d="M20.573 4.902A6.6 6.6 0 0 0 19.43 8.63a6.632 6.632 0 0 0 8.528 6.353c-.384-4.567-3.324-8.406-7.385-10.081"/><path fill="url(#l)" d="M14.94 17.04a2.74 2.74 0 1 0 0-5.48 2.74 2.74 0 0 0 0 5.48"/><defs><radialGradient id="d" cx="0" cy="0" r="1" gradientTransform="matrix(.125 2.5625 -4.6855 .22856 18.063 24.813)" gradientUnits="userSpaceOnUse"><stop stop-color="#ffd2ba"/><stop offset="1" stop-color="#ffd6c1" stop-opacity="0"/></radialGradient><radialGradient id="e" cx="0" cy="0" r="1" gradientTransform="matrix(0 15.375 -15.6471 0 16 13.625)" gradientUnits="userSpaceOnUse"><stop offset=".547" stop-color="#ff465a"/><stop offset="1" stop-color="#af1816"/></radialGradient><radialGradient id="f" cx="0" cy="0" r="1" gradientTransform="rotate(111.922 5.666 12.565)scale(5.52445 5.89112)" gradientUnits="userSpaceOnUse"><stop stop-color="#ff6783"/><stop offset="1" stop-color="#ff6783" stop-opacity="0"/></radialGradient><radialGradient id="g" cx="0" cy="0" r="1" gradientTransform="matrix(2 13.125 -34.24807 5.21873 18.25 8.625)" gradientUnits="userSpaceOnUse"><stop offset=".595" stop-color="#fb3e7b" stop-opacity="0"/><stop offset=".958" stop-color="#cf2faa"/></radialGradient><radialGradient id="h" cx="0" cy="0" r="1" gradientTransform="matrix(5.125 3.75 -4.01367 5.48535 8.813 15.5)" gradientUnits="userSpaceOnUse"><stop stop-color="#ff5152"/><stop offset=".544" stop-color="#fe5152" stop-opacity="0"/></radialGradient><radialGradient id="i" cx="0" cy="0" r="1" gradientTransform="rotate(65.854 -.83 10.88)scale(7.94512 7.7589)" gradientUnits="userSpaceOnUse"><stop stop-color="#ff3942"/><stop offset=".756" stop-color="#ff3a43" stop-opacity="0"/></radialGradient><radialGradient id="j" cx="0" cy="0" r="1" gradientTransform="rotate(144.597 4.148 6.317)scale(9.27804 5.09653)" gradientUnits="userSpaceOnUse"><stop offset=".136" stop-color="#ffbdc0"/><stop offset=".562" stop-color="#e8a7a1"/><stop offset=".795" stop-color="#bb867e"/></radialGradient><radialGradient id="k" cx="0" cy="0" r="1" gradientTransform="rotate(41.561 -6.521 32.716)scale(10.5514 8.29956)" gradientUnits="userSpaceOnUse"><stop offset=".05" stop-color="#ffe0ea"/><stop offset=".636" stop-color="#ffe0de"/><stop offset=".888" stop-color="#ffbfbb"/><stop offset="1" stop-color="#f5bcae"/></radialGradient><radialGradient id="l" cx="0" cy="0" r="1" gradientTransform="rotate(159.141 7.153 8.709)scale(6.35394)" gradientUnits="userSpaceOnUse"><stop stop-color="#ffcdeb"/><stop offset=".728" stop-color="#ffb8d9"/></radialGradient><linearGradient id="a" x1="15.928" x2="15.928" y1="17.902" y2="28.188" gradientUnits="userSpaceOnUse"><stop stop-color="#f4869c"/><stop offset=".272" stop-color="#fa89a2"/><stop offset=".426" stop-color="#ffaaad"/><stop offset=".709" stop-color="#ffbdaf"/><stop offset=".882" stop-color="#ffb6c3"/><stop offset="1" stop-color="#ff92c0"/></linearGradient><linearGradient id="b" x1="10.867" x2="12.188" y1="24.493" y2="24.969" gradientUnits="userSpaceOnUse"><stop stop-color="#db937a"/><stop offset="1" stop-color="#e39a81" stop-opacity="0"/></linearGradient><linearGradient id="c" x1="21.563" x2="19.25" y1="22.188" y2="23.344" gradientUnits="userSpaceOnUse"><stop offset=".389" stop-color="#d26982"/><stop offset="1" stop-color="#dc7388" stop-opacity="0"/></linearGradient></defs></svg>