<svg xmlns="http://www.w3.org/2000/svg" width="32" height="32" fill="none" viewBox="0 0 32 32"><g filter="url(#a)"><path fill="url(#b)" d="M29.478 3.1a1.2 1.2 0 0 0-1.35-1.191L11.493 4.002a1.2 1.2 0 0 0-1.05 1.191v19.298h4.144v-14.47a1 1 0 0 1 .876-.992l8.746-1.1a1 1 0 0 1 1.125.992v11.883h4.144z"/></g><path fill="url(#c)" d="M29.478 3.1a1.2 1.2 0 0 0-1.35-1.191L11.493 4.002a1.2 1.2 0 0 0-1.05 1.191v19.298h4.144v-14.47a1 1 0 0 1 .876-.992l8.746-1.1a1 1 0 0 1 1.125.992v11.883h4.144z"/><path fill="url(#d)" d="M29.478 3.1a1.2 1.2 0 0 0-1.35-1.191L11.493 4.002a1.2 1.2 0 0 0-1.05 1.191v19.298h4.144v-14.47a1 1 0 0 1 .876-.992l8.746-1.1a1 1 0 0 1 1.125.992v11.883h4.144z"/><path fill="url(#e)" d="M29.478 3.1a1.2 1.2 0 0 0-1.35-1.191L11.493 4.002a1.2 1.2 0 0 0-1.05 1.191v19.298h4.144v-14.47a1 1 0 0 1 .876-.992l8.746-1.1a1 1 0 0 1 1.125.992v11.883h4.144z"/><path fill="url(#f)" d="M29.478 3.1a1.2 1.2 0 0 0-1.35-1.191L11.493 4.002a1.2 1.2 0 0 0-1.05 1.191v19.298h4.144v-14.47a1 1 0 0 1 .876-.992l8.746-1.1a1 1 0 0 1 1.125.992v11.883h4.144z"/><circle cx="8.646" cy="24.159" r="5.941" fill="url(#g)"/><circle cx="8.646" cy="24.159" r="5.941" fill="url(#h)"/><circle cx="8.646" cy="24.159" r="5.941" fill="url(#i)"/><circle cx="8.646" cy="24.159" r="5.941" fill="url(#j)"/><circle cx="8.646" cy="24.159" r="5.941" fill="url(#k)"/><circle cx="23.537" cy="20.769" r="5.941" fill="url(#l)"/><circle cx="23.537" cy="20.769" r="5.941" fill="url(#m)"/><circle cx="23.537" cy="20.769" r="5.941" fill="url(#n)"/><circle cx="23.537" cy="20.769" r="5.941" fill="url(#o)"/><defs><radialGradient id="d" cx="0" cy="0" r="1" gradientTransform="rotate(137.021 14.165 6.86)scale(2.3405 .71697)" gradientUnits="userSpaceOnUse"><stop stop-color="#635a6d"/><stop offset="1" stop-color="#635a6d" stop-opacity="0"/></radialGradient><radialGradient id="e" cx="0" cy="0" r="1" gradientTransform="rotate(-51.147 31.699 -19.91)scale(1.44461 4.28044)" gradientUnits="userSpaceOnUse"><stop offset=".582" stop-color="#535254"/><stop offset="1" stop-color="#535254" stop-opacity="0"/></radialGradient><radialGradient id="f" cx="0" cy="0" r="1" gradientTransform="rotate(-47.121 29.617 -4.108)scale(1.49258 4.0639)" gradientUnits="userSpaceOnUse"><stop offset=".382" stop-color="#4f4d50"/><stop offset="1" stop-color="#4f4d50" stop-opacity="0"/></radialGradient><radialGradient id="g" cx="0" cy="0" r="1" gradientTransform="matrix(0 -6.75 9.28125 0 8.646 29.5)" gradientUnits="userSpaceOnUse"><stop stop-color="#442b58"/><stop offset="1" stop-color="#38353b"/></radialGradient><radialGradient id="h" cx="0" cy="0" r="1" gradientTransform="rotate(130.389 .67 13.963)scale(5.49787)" gradientUnits="userSpaceOnUse"><stop stop-color="#5a585c"/><stop offset="1" stop-color="#5a585c" stop-opacity="0"/></radialGradient><radialGradient id="i" cx="0" cy="0" r="1" gradientTransform="rotate(190.235 6.535 11.826)scale(9.14552 9.40265)" gradientUnits="userSpaceOnUse"><stop offset=".619" stop-color="#5c5c5c" stop-opacity="0"/><stop offset="1" stop-color="#828282"/></radialGradient><radialGradient id="j" cx="0" cy="0" r="1" gradientTransform="matrix(8.19062 0 0 10.8866 7.297 24.16)" gradientUnits="userSpaceOnUse"><stop offset=".796" stop-color="#575658" stop-opacity="0"/><stop offset=".955" stop-color="#575658"/></radialGradient><radialGradient id="k" cx="0" cy="0" r="1" gradientTransform="matrix(0 6.75342 -6.8464 0 8.646 23.588)" gradientUnits="userSpaceOnUse"><stop offset=".881" stop-color="#64487c" stop-opacity="0"/><stop offset="1" stop-color="#64487c"/></radialGradient><radialGradient id="l" cx="0" cy="0" r="1" gradientTransform="matrix(0 -6.75 9.28125 0 23.537 26.11)" gradientUnits="userSpaceOnUse"><stop offset=".162" stop-color="#442b58"/><stop offset="1" stop-color="#38353b"/></radialGradient><radialGradient id="m" cx="0" cy="0" r="1" gradientTransform="rotate(139.445 10.366 14.751)scale(6.27234 5.45698)" gradientUnits="userSpaceOnUse"><stop stop-color="#5f5f60"/><stop offset="1" stop-color="#5f5f60" stop-opacity="0"/></radialGradient><radialGradient id="n" cx="0" cy="0" r="1" gradientTransform="matrix(8.19062 0 0 10.8866 22.188 20.769)" gradientUnits="userSpaceOnUse"><stop offset=".796" stop-color="#575658" stop-opacity="0"/><stop offset=".955" stop-color="#575658"/></radialGradient><radialGradient id="o" cx="0" cy="0" r="1" gradientTransform="matrix(0 6.75342 -6.8464 0 23.537 20.198)" gradientUnits="userSpaceOnUse"><stop offset=".881" stop-color="#64487c" stop-opacity="0"/><stop offset="1" stop-color="#64487c"/></radialGradient><linearGradient id="b" x1="19.96" x2="19.96" y1="8.185" y2="24.491" gradientUnits="userSpaceOnUse"><stop stop-color="#473b53"/><stop offset="1" stop-color="#433d4a"/></linearGradient><linearGradient id="c" x1="10.311" x2="11.537" y1="17.32" y2="17.32" gradientUnits="userSpaceOnUse"><stop stop-color="#7e7c80"/><stop offset="1" stop-color="#39373d" stop-opacity="0"/></linearGradient><filter id="a" width="20.535" height="23.342" x="9.693" y="1.899" color-interpolation-filters="sRGB" filterUnits="userSpaceOnUse"><feFlood flood-opacity="0" result="BackgroundImageFix"/><feBlend in="SourceGraphic" in2="BackgroundImageFix" result="shape"/><feColorMatrix in="SourceAlpha" result="hardAlpha" values="0 0 0 0 0 0 0 0 0 0 0 0 0 0 0 0 0 0 127 0"/><feOffset dx="1" dy="1"/><feGaussianBlur stdDeviation=".375"/><feComposite in2="hardAlpha" k2="-1" k3="1" operator="arithmetic"/><feColorMatrix values="0 0 0 0 0.235294 0 0 0 0 0.211765 0 0 0 0 0.266667 0 0 0 1 0"/><feBlend in2="shape" result="effect1_innerShadow_18_18060"/><feColorMatrix in="SourceAlpha" result="hardAlpha" values="0 0 0 0 0 0 0 0 0 0 0 0 0 0 0 0 0 0 127 0"/><feOffset dx="-1"/><feGaussianBlur stdDeviation=".375"/><feComposite in2="hardAlpha" k2="-1" k3="1" operator="arithmetic"/><feColorMatrix values="0 0 0 0 0.317647 0 0 0 0 0.298039 0 0 0 0 0.341176 0 0 0 1 0"/><feBlend in2="effect1_innerShadow_18_18060" result="effect2_innerShadow_18_18060"/></filter></defs></svg>