<svg xmlns="http://www.w3.org/2000/svg" width="32" height="32" fill="none" viewBox="0 0 32 32"><g filter="url(#a)"><path fill="url(#b)" d="M2.07 28.906a1 1 0 0 0 1 1h25.86a1 1 0 0 0 1-1V8.984H2.07z"/><path fill="url(#c)" d="M2.07 28.906a1 1 0 0 0 1 1h25.86a1 1 0 0 0 1-1V8.984H2.07z"/><path fill="url(#d)" d="M2.07 28.906a1 1 0 0 0 1 1h25.86a1 1 0 0 0 1-1V8.984H2.07z"/></g><g filter="url(#e)"><path fill="url(#f)" d="M3.055 8.984h5.968V27.75a1 1 0 0 1-1 1H4.055a1 1 0 0 1-1-1z"/><path fill="url(#g)" d="M3.055 8.984h5.968V27.75a1 1 0 0 1-1 1H4.055a1 1 0 0 1-1-1z"/><path fill="url(#h)" d="M3.055 8.984h5.968V27.75a1 1 0 0 1-1 1H4.055a1 1 0 0 1-1-1z"/></g><g filter="url(#i)"><path fill="url(#j)" d="M9.7 8.984h5.97V27.75a1 1 0 0 1-1 1H10.7a1 1 0 0 1-1-1z"/><path fill="url(#k)" d="M9.7 8.984h5.97V27.75a1 1 0 0 1-1 1H10.7a1 1 0 0 1-1-1z"/><path fill="url(#l)" d="M9.7 8.984h5.97V27.75a1 1 0 0 1-1 1H10.7a1 1 0 0 1-1-1z"/></g><g filter="url(#m)"><path fill="url(#n)" d="M16.346 8.984h5.97V27.75a1 1 0 0 1-1 1h-3.97a1 1 0 0 1-1-1z"/><path fill="url(#o)" d="M16.346 8.984h5.97V27.75a1 1 0 0 1-1 1h-3.97a1 1 0 0 1-1-1z"/><path fill="url(#p)" d="M16.346 8.984h5.97V27.75a1 1 0 0 1-1 1h-3.97a1 1 0 0 1-1-1z"/></g><g filter="url(#q)"><path fill="url(#r)" d="M22.992 8.984h5.969V27.75a1 1 0 0 1-1 1h-3.969a1 1 0 0 1-1-1z"/><path fill="url(#s)" d="M22.992 8.984h5.969V27.75a1 1 0 0 1-1 1h-3.969a1 1 0 0 1-1-1z"/><path fill="url(#t)" d="M22.992 8.984h5.969V27.75a1 1 0 0 1-1 1h-3.969a1 1 0 0 1-1-1z"/><path fill="url(#u)" d="M22.992 8.984h5.969V27.75a1 1 0 0 1-1 1h-3.969a1 1 0 0 1-1-1z"/></g><g filter="url(#v)"><path fill="#c8bbd7" d="M6.839 8.984h3.287v11.289c0 .537-.403.972-.9.972H7.739c-.497 0-.9-.435-.9-.972z"/></g><g filter="url(#w)"><path fill="#c8bbd7" d="M13.547 8.984h3.287v11.289c0 .537-.402.972-.899.972h-1.489c-.496 0-.899-.435-.899-.972z"/></g><g filter="url(#x)"><path fill="#c8bbd7" d="M20.256 8.984h3.287v11.289c0 .537-.403.972-.9.972h-1.488c-.497 0-.899-.435-.899-.972z"/></g><g filter="url(#y)"><path fill="url(#z)" d="M2.07 3.078a1 1 0 0 1 1-1h25.86a1 1 0 0 1 1 1v5.906H2.07z"/></g><path fill="url(#A)" d="M2.07 3.078a1 1 0 0 1 1-1h25.86a1 1 0 0 1 1 1v5.906H2.07z"/><g filter="url(#B)"><path fill="url(#C)" d="M7.617 8.984h3.656v11.61a1 1 0 0 1-1 1H8.617a1 1 0 0 1-1-1z"/><path fill="url(#D)" d="M7.617 8.984h3.656v11.61a1 1 0 0 1-1 1H8.617a1 1 0 0 1-1-1z"/><path fill="url(#E)" d="M7.617 8.984h3.656v11.61a1 1 0 0 1-1 1H8.617a1 1 0 0 1-1-1z"/></g><g filter="url(#F)"><path fill="url(#G)" d="M14.172 8.984h3.656v11.61a1 1 0 0 1-1 1h-1.656a1 1 0 0 1-1-1z"/><path fill="url(#H)" d="M14.172 8.984h3.656v11.61a1 1 0 0 1-1 1h-1.656a1 1 0 0 1-1-1z"/><path fill="url(#I)" d="M14.172 8.984h3.656v11.61a1 1 0 0 1-1 1h-1.656a1 1 0 0 1-1-1z"/></g><g filter="url(#J)"><path fill="url(#K)" d="M20.727 8.984h3.656v11.61a1 1 0 0 1-1 1h-1.656a1 1 0 0 1-1-1z"/><path fill="url(#L)" d="M20.727 8.984h3.656v11.61a1 1 0 0 1-1 1h-1.656a1 1 0 0 1-1-1z"/><path fill="url(#M)" d="M20.727 8.984h3.656v11.61a1 1 0 0 1-1 1h-1.656a1 1 0 0 1-1-1z"/></g><defs><linearGradient id="b" x1="21.711" x2="30.398" y1="18.375" y2="18.375" gradientUnits="userSpaceOnUse"><stop stop-color="#948f99"/><stop offset="1" stop-color="#c3bfc7"/></linearGradient><linearGradient id="c" x1="30.084" x2="29.436" y1="23.802" y2="23.802" gradientUnits="userSpaceOnUse"><stop offset=".286" stop-color="#cac7ce"/><stop offset="1" stop-color="#cac7ce" stop-opacity="0"/></linearGradient><linearGradient id="d" x1="15.086" x2="15.086" y1="29.906" y2="27.657" gradientUnits="userSpaceOnUse"><stop stop-color="#a088b8"/><stop offset="1" stop-color="#a092b0" stop-opacity="0"/></linearGradient><linearGradient id="f" x1="6.039" x2="6.039" y1="8.984" y2="27.805" gradientUnits="userSpaceOnUse"><stop stop-color="#c3b8cf"/><stop offset=".571" stop-color="#e3d6f2"/></linearGradient><linearGradient id="g" x1="6.252" x2="6.252" y1="28.954" y2="27.62" gradientUnits="userSpaceOnUse"><stop offset=".083" stop-color="#b9a1d1"/><stop offset="1" stop-color="#e1d1f2" stop-opacity="0"/></linearGradient><linearGradient id="j" x1="12.685" x2="12.685" y1="8.984" y2="27.805" gradientUnits="userSpaceOnUse"><stop stop-color="#c3b8cf"/><stop offset=".571" stop-color="#e3d6f2"/></linearGradient><linearGradient id="k" x1="12.898" x2="12.898" y1="28.954" y2="27.62" gradientUnits="userSpaceOnUse"><stop offset=".083" stop-color="#b9a1d1"/><stop offset="1" stop-color="#e1d1f2" stop-opacity="0"/></linearGradient><linearGradient id="n" x1="19.331" x2="19.331" y1="8.984" y2="27.805" gradientUnits="userSpaceOnUse"><stop stop-color="#c3b8cf"/><stop offset=".571" stop-color="#e3d6f2"/></linearGradient><linearGradient id="o" x1="19.544" x2="19.544" y1="28.954" y2="27.62" gradientUnits="userSpaceOnUse"><stop offset=".083" stop-color="#b9a1d1"/><stop offset="1" stop-color="#e1d1f2" stop-opacity="0"/></linearGradient><linearGradient id="r" x1="25.977" x2="25.977" y1="8.984" y2="27.805" gradientUnits="userSpaceOnUse"><stop stop-color="#c3b8cf"/><stop offset=".571" stop-color="#e3d6f2"/></linearGradient><linearGradient id="t" x1="29.417" x2="27.787" y1="23.951" y2="23.951" gradientUnits="userSpaceOnUse"><stop stop-color="#f5effd"/><stop offset="1" stop-color="#e2d5f0" stop-opacity="0"/></linearGradient><linearGradient id="u" x1="26.19" x2="26.19" y1="28.954" y2="27.62" gradientUnits="userSpaceOnUse"><stop offset=".083" stop-color="#b9a1d1"/><stop offset="1" stop-color="#e1d1f2" stop-opacity="0"/></linearGradient><linearGradient id="z" x1="16" x2="16" y1="2.602" y2="8.984" gradientUnits="userSpaceOnUse"><stop stop-color="#473856"/><stop offset="1" stop-color="#41374b"/></linearGradient><linearGradient id="A" x1="19.707" x2="19.707" y1="8.984" y2="8.504" gradientUnits="userSpaceOnUse"><stop stop-color="#372646"/><stop offset="1" stop-color="#372646" stop-opacity="0"/></linearGradient><linearGradient id="C" x1="9.445" x2="9.445" y1="8.984" y2="21.594" gradientUnits="userSpaceOnUse"><stop offset=".334" stop-color="#58426c"/><stop offset="1" stop-color="#443c4b"/></linearGradient><linearGradient id="D" x1="11.404" x2="10.644" y1="18.873" y2="18.873" gradientUnits="userSpaceOnUse"><stop offset=".488" stop-color="#5a4d68"/><stop offset="1" stop-color="#5a4d68" stop-opacity="0"/></linearGradient><linearGradient id="E" x1="9.445" x2="9.445" y1="8.791" y2="9.866" gradientUnits="userSpaceOnUse"><stop offset=".172" stop-color="#42285c"/><stop offset="1" stop-color="#5a436e" stop-opacity="0"/></linearGradient><linearGradient id="G" x1="16" x2="16" y1="8.984" y2="21.594" gradientUnits="userSpaceOnUse"><stop offset=".334" stop-color="#58426c"/><stop offset="1" stop-color="#443c4b"/></linearGradient><linearGradient id="H" x1="17.959" x2="17.199" y1="18.873" y2="18.873" gradientUnits="userSpaceOnUse"><stop offset=".488" stop-color="#5a4d68"/><stop offset="1" stop-color="#5a4d68" stop-opacity="0"/></linearGradient><linearGradient id="I" x1="16" x2="16" y1="8.791" y2="9.866" gradientUnits="userSpaceOnUse"><stop offset=".172" stop-color="#42285c"/><stop offset="1" stop-color="#5a436e" stop-opacity="0"/></linearGradient><linearGradient id="K" x1="22.555" x2="22.555" y1="8.984" y2="21.594" gradientUnits="userSpaceOnUse"><stop offset=".334" stop-color="#58426c"/><stop offset="1" stop-color="#443c4b"/></linearGradient><linearGradient id="L" x1="24.514" x2="23.754" y1="18.873" y2="18.873" gradientUnits="userSpaceOnUse"><stop offset=".488" stop-color="#5a4d68"/><stop offset="1" stop-color="#5a4d68" stop-opacity="0"/></linearGradient><linearGradient id="M" x1="22.555" x2="22.555" y1="8.791" y2="9.866" gradientUnits="userSpaceOnUse"><stop offset=".172" stop-color="#42285c"/><stop offset="1" stop-color="#5a436e" stop-opacity="0"/></linearGradient><filter id="a" width="27.959" height="21.022" x="2.07" y="8.884" color-interpolation-filters="sRGB" filterUnits="userSpaceOnUse"><feFlood flood-opacity="0" result="BackgroundImageFix"/><feBlend in="SourceGraphic" in2="BackgroundImageFix" result="shape"/><feColorMatrix in="SourceAlpha" result="hardAlpha" values="0 0 0 0 0 0 0 0 0 0 0 0 0 0 0 0 0 0 127 0"/><feOffset dx=".1" dy="-.1"/><feGaussianBlur stdDeviation=".25"/><feComposite in2="hardAlpha" k2="-1" k3="1" operator="arithmetic"/><feColorMatrix values="0 0 0 0 0.592157 0 0 0 0 0.552941 0 0 0 0 0.635294 0 0 0 1 0"/><feBlend in2="shape" result="effect1_innerShadow_18_18699"/></filter><filter id="e" width="6.169" height="19.766" x="3.055" y="8.984" color-interpolation-filters="sRGB" filterUnits="userSpaceOnUse"><feFlood flood-opacity="0" result="BackgroundImageFix"/><feBlend in="SourceGraphic" in2="BackgroundImageFix" result="shape"/><feColorMatrix in="SourceAlpha" result="hardAlpha" values="0 0 0 0 0 0 0 0 0 0 0 0 0 0 0 0 0 0 127 0"/><feOffset dx=".2"/><feGaussianBlur stdDeviation=".25"/><feComposite in2="hardAlpha" k2="-1" k3="1" operator="arithmetic"/><feColorMatrix values="0 0 0 0 0.678431 0 0 0 0 0.654902 0 0 0 0 0.701961 0 0 0 1 0"/><feBlend in2="shape" result="effect1_innerShadow_18_18699"/></filter><filter id="i" width="6.169" height="19.766" x="9.701" y="8.984" color-interpolation-filters="sRGB" filterUnits="userSpaceOnUse"><feFlood flood-opacity="0" result="BackgroundImageFix"/><feBlend in="SourceGraphic" in2="BackgroundImageFix" result="shape"/><feColorMatrix in="SourceAlpha" result="hardAlpha" values="0 0 0 0 0 0 0 0 0 0 0 0 0 0 0 0 0 0 127 0"/><feOffset dx=".2"/><feGaussianBlur stdDeviation=".25"/><feComposite in2="hardAlpha" k2="-1" k3="1" operator="arithmetic"/><feColorMatrix values="0 0 0 0 0.678431 0 0 0 0 0.654902 0 0 0 0 0.701961 0 0 0 1 0"/><feBlend in2="shape" result="effect1_innerShadow_18_18699"/></filter><filter id="m" width="6.169" height="19.766" x="16.346" y="8.984" color-interpolation-filters="sRGB" filterUnits="userSpaceOnUse"><feFlood flood-opacity="0" result="BackgroundImageFix"/><feBlend in="SourceGraphic" in2="BackgroundImageFix" result="shape"/><feColorMatrix in="SourceAlpha" result="hardAlpha" values="0 0 0 0 0 0 0 0 0 0 0 0 0 0 0 0 0 0 127 0"/><feOffset dx=".2"/><feGaussianBlur stdDeviation=".25"/><feComposite in2="hardAlpha" k2="-1" k3="1" operator="arithmetic"/><feColorMatrix values="0 0 0 0 0.678431 0 0 0 0 0.654902 0 0 0 0 0.701961 0 0 0 1 0"/><feBlend in2="shape" result="effect1_innerShadow_18_18699"/></filter><filter id="q" width="6.169" height="19.766" x="22.992" y="8.984" color-interpolation-filters="sRGB" filterUnits="userSpaceOnUse"><feFlood flood-opacity="0" result="BackgroundImageFix"/><feBlend in="SourceGraphic" in2="BackgroundImageFix" result="shape"/><feColorMatrix in="SourceAlpha" result="hardAlpha" values="0 0 0 0 0 0 0 0 0 0 0 0 0 0 0 0 0 0 127 0"/><feOffset dx=".2"/><feGaussianBlur stdDeviation=".25"/><feComposite in2="hardAlpha" k2="-1" k3="1" operator="arithmetic"/><feColorMatrix values="0 0 0 0 0.678431 0 0 0 0 0.654902 0 0 0 0 0.701961 0 0 0 1 0"/><feBlend in2="shape" result="effect1_innerShadow_18_18699"/></filter><filter id="v" width="4.787" height="13.761" x="6.089" y="8.234" color-interpolation-filters="sRGB" filterUnits="userSpaceOnUse"><feFlood flood-opacity="0" result="BackgroundImageFix"/><feBlend in="SourceGraphic" in2="BackgroundImageFix" result="shape"/><feGaussianBlur result="effect1_foregroundBlur_18_18699" stdDeviation=".375"/></filter><filter id="w" width="4.787" height="13.761" x="12.797" y="8.234" color-interpolation-filters="sRGB" filterUnits="userSpaceOnUse"><feFlood flood-opacity="0" result="BackgroundImageFix"/><feBlend in="SourceGraphic" in2="BackgroundImageFix" result="shape"/><feGaussianBlur result="effect1_foregroundBlur_18_18699" stdDeviation=".375"/></filter><filter id="x" width="4.787" height="13.761" x="19.506" y="8.234" color-interpolation-filters="sRGB" filterUnits="userSpaceOnUse"><feFlood flood-opacity="0" result="BackgroundImageFix"/><feBlend in="SourceGraphic" in2="BackgroundImageFix" result="shape"/><feGaussianBlur result="effect1_foregroundBlur_18_18699" stdDeviation=".375"/></filter><filter id="y" width="28.609" height="7.156" x="1.57" y="2.078" color-interpolation-filters="sRGB" filterUnits="userSpaceOnUse"><feFlood flood-opacity="0" result="BackgroundImageFix"/><feBlend in="SourceGraphic" in2="BackgroundImageFix" result="shape"/><feColorMatrix in="SourceAlpha" result="hardAlpha" values="0 0 0 0 0 0 0 0 0 0 0 0 0 0 0 0 0 0 127 0"/><feOffset dx="-.5" dy=".25"/><feGaussianBlur stdDeviation=".25"/><feComposite in2="hardAlpha" k2="-1" k3="1" operator="arithmetic"/><feColorMatrix values="0 0 0 0 0.4 0 0 0 0 0.360784 0 0 0 0 0.447059 0 0 0 1 0"/><feBlend in2="shape" result="effect1_innerShadow_18_18699"/><feColorMatrix in="SourceAlpha" result="hardAlpha" values="0 0 0 0 0 0 0 0 0 0 0 0 0 0 0 0 0 0 127 0"/><feOffset dx=".5" dy=".25"/><feGaussianBlur stdDeviation=".125"/><feComposite in2="hardAlpha" k2="-1" k3="1" operator="arithmetic"/><feColorMatrix values="0 0 0 0 0.254902 0 0 0 0 0.239216 0 0 0 0 0.27451 0 0 0 1 0"/><feBlend in2="effect1_innerShadow_18_18699" result="effect2_innerShadow_18_18699"/></filter><filter id="B" width="4.006" height="12.859" x="7.617" y="8.734" color-interpolation-filters="sRGB" filterUnits="userSpaceOnUse"><feFlood flood-opacity="0" result="BackgroundImageFix"/><feBlend in="SourceGraphic" in2="BackgroundImageFix" result="shape"/><feColorMatrix in="SourceAlpha" result="hardAlpha" values="0 0 0 0 0 0 0 0 0 0 0 0 0 0 0 0 0 0 127 0"/><feOffset dx=".35" dy="-.25"/><feGaussianBlur stdDeviation=".175"/><feComposite in2="hardAlpha" k2="-1" k3="1" operator="arithmetic"/><feColorMatrix values="0 0 0 0 0.235294 0 0 0 0 0.188235 0 0 0 0 0.278431 0 0 0 1 0"/><feBlend in2="shape" result="effect1_innerShadow_18_18699"/></filter><filter id="F" width="4.006" height="12.859" x="14.172" y="8.734" color-interpolation-filters="sRGB" filterUnits="userSpaceOnUse"><feFlood flood-opacity="0" result="BackgroundImageFix"/><feBlend in="SourceGraphic" in2="BackgroundImageFix" result="shape"/><feColorMatrix in="SourceAlpha" result="hardAlpha" values="0 0 0 0 0 0 0 0 0 0 0 0 0 0 0 0 0 0 127 0"/><feOffset dx=".35" dy="-.25"/><feGaussianBlur stdDeviation=".175"/><feComposite in2="hardAlpha" k2="-1" k3="1" operator="arithmetic"/><feColorMatrix values="0 0 0 0 0.235294 0 0 0 0 0.188235 0 0 0 0 0.278431 0 0 0 1 0"/><feBlend in2="shape" result="effect1_innerShadow_18_18699"/></filter><filter id="J" width="4.006" height="12.859" x="20.727" y="8.734" color-interpolation-filters="sRGB" filterUnits="userSpaceOnUse"><feFlood flood-opacity="0" result="BackgroundImageFix"/><feBlend in="SourceGraphic" in2="BackgroundImageFix" result="shape"/><feColorMatrix in="SourceAlpha" result="hardAlpha" values="0 0 0 0 0 0 0 0 0 0 0 0 0 0 0 0 0 0 127 0"/><feOffset dx=".35" dy="-.25"/><feGaussianBlur stdDeviation=".175"/><feComposite in2="hardAlpha" k2="-1" k3="1" operator="arithmetic"/><feColorMatrix values="0 0 0 0 0.235294 0 0 0 0 0.188235 0 0 0 0 0.278431 0 0 0 1 0"/><feBlend in2="shape" result="effect1_innerShadow_18_18699"/></filter><radialGradient id="h" cx="0" cy="0" r="1" gradientTransform="matrix(-4.48474 0 0 -14.2264 9.591 16.723)" gradientUnits="userSpaceOnUse"><stop stop-color="#ece3f6"/><stop offset="1" stop-color="#ece3f6" stop-opacity="0"/></radialGradient><radialGradient id="l" cx="0" cy="0" r="1" gradientTransform="matrix(-4.48474 0 0 -14.2264 16.237 16.723)" gradientUnits="userSpaceOnUse"><stop stop-color="#ece3f6"/><stop offset="1" stop-color="#ece3f6" stop-opacity="0"/></radialGradient><radialGradient id="p" cx="0" cy="0" r="1" gradientTransform="matrix(-4.48474 0 0 -14.2264 22.883 16.723)" gradientUnits="userSpaceOnUse"><stop stop-color="#ece3f6"/><stop offset="1" stop-color="#ece3f6" stop-opacity="0"/></radialGradient><radialGradient id="s" cx="0" cy="0" r="1" gradientTransform="matrix(-4.48474 0 0 -14.2264 29.529 16.723)" gradientUnits="userSpaceOnUse"><stop stop-color="#ece3f6"/><stop offset="1" stop-color="#ece3f6" stop-opacity="0"/></radialGradient></defs></svg>