<svg xmlns="http://www.w3.org/2000/svg" width="32" height="32" fill="none" viewBox="0 0 32 32"><path fill="url(#a)" d="M23.025 12.49H9.005v13.99h14.02z"/><path fill="#b9b4c3" d="M28.965 29.47H3.025V27.1c0-.35.28-.63.63-.63h24.69c.35 0 .63.28.63.63v2.37z"/><path fill="url(#b)" d="M28.965 29.47H3.025V27.1c0-.35.28-.63.63-.63h24.69c.35 0 .63.28.63.63v2.37z"/><path fill="url(#c)" d="M28.965 29.47H3.025V27.1c0-.35.28-.63.63-.63h24.69c.35 0 .63.28.63.63v2.37z"/><path fill="url(#d)" d="M28.965 29.47H3.025V27.1c0-.35.28-.63.63-.63h24.69c.35 0 .63.28.63.63v2.37z"/><path fill="#b8b1c0" d="M4.045 10.49h23.95v1.37c0 .35-.28.63-.63.63h-22.7c-.35 0-.63-.28-.63-.63v-1.37z"/><path fill="url(#e)" d="M4.045 10.49h23.95v1.37c0 .35-.28.63-.63.63h-22.7c-.35 0-.63-.28-.63-.63v-1.37z"/><path fill="url(#f)" d="M4.045 10.49h23.95v1.37c0 .35-.28.63-.63.63h-22.7c-.35 0-.63-.28-.63-.63v-1.37z"/><path fill="url(#g)" d="M4.045 10.49h23.95v1.37c0 .35-.28.63-.63.63h-22.7c-.35 0-.63-.28-.63-.63v-1.37z"/><path fill="url(#h)" d="M8.995 13.46h-2.99v12.1h2.99z"/><path fill="url(#i)" d="M8.995 13.46h-2.99v12.1h2.99z"/><path fill="url(#j)" d="M14.655 13.46h-2.99v12.1h2.99z"/><path fill="url(#k)" d="M14.655 13.46h-2.99v12.1h2.99z"/><path fill="url(#l)" d="M20.315 13.46h-2.99v12.1h2.99z"/><path fill="url(#m)" d="M20.315 13.46h-2.99v12.1h2.99z"/><path fill="url(#n)" d="M25.975 13.46h-2.99v12.1h2.99z"/><path fill="url(#o)" d="M25.975 13.46h-2.99v12.1h2.99z"/><path fill="url(#p)" d="M15.326 3.01 3.366 9.75c-.36.2-.22.76.2.76h24.88c.42 0 .56-.55.2-.76l-11.96-6.74c-.42-.24-.94-.24-1.36 0"/><path fill="url(#q)" d="M15.326 3.01 3.366 9.75c-.36.2-.22.76.2.76h24.88c.42 0 .56-.55.2-.76l-11.96-6.74c-.42-.24-.94-.24-1.36 0"/><path fill="url(#r)" d="M15.326 3.01 3.366 9.75c-.36.2-.22.76.2.76h24.88c.42 0 .56-.55.2-.76l-11.96-6.74c-.42-.24-.94-.24-1.36 0"/><path fill="url(#s)" d="M15.326 3.01 3.366 9.75c-.36.2-.22.76.2.76h24.88c.42 0 .56-.55.2-.76l-11.96-6.74c-.42-.24-.94-.24-1.36 0"/><path fill="url(#t)" d="M10.005 12.49h-4.99v.19c0 .45.36.81.81.81h3.37c.45 0 .81-.36.81-.81z"/><path fill="url(#u)" d="M10.005 12.49h-4.99v.19c0 .45.36.81.81.81h3.37c.45 0 .81-.36.81-.81z"/><path fill="url(#v)" d="M10.005 12.49h-4.99v.19c0 .45.36.81.81.81h3.37c.45 0 .81-.36.81-.81z"/><path fill="url(#w)" d="M15.655 12.49h-4.99v.19c0 .45.36.81.81.81h3.37c.45 0 .81-.36.81-.81z"/><path fill="url(#x)" d="M15.655 12.49h-4.99v.19c0 .45.36.81.81.81h3.37c.45 0 .81-.36.81-.81z"/><path fill="url(#y)" d="M15.655 12.49h-4.99v.19c0 .45.36.81.81.81h3.37c.45 0 .81-.36.81-.81z"/><path fill="url(#z)" d="M21.325 12.49h-4.99v.19c0 .45.36.81.81.81h3.37c.45 0 .81-.36.81-.81z"/><path fill="url(#A)" d="M21.325 12.49h-4.99v.19c0 .45.36.81.81.81h3.37c.45 0 .81-.36.81-.81z"/><path fill="url(#B)" d="M21.325 12.49h-4.99v.19c0 .45.36.81.81.81h3.37c.45 0 .81-.36.81-.81z"/><path fill="url(#C)" d="M26.985 12.49h-4.99v.19c0 .45.36.81.81.81h3.37c.45 0 .81-.36.81-.81z"/><path fill="url(#D)" d="M26.985 12.49h-4.99v.19c0 .45.36.81.81.81h3.37c.45 0 .81-.36.81-.81z"/><path fill="url(#E)" d="M26.985 12.49h-4.99v.19c0 .45.36.81.81.81h3.37c.45 0 .81-.36.81-.81z"/><path fill="url(#F)" d="M21.985 26.48h4.99v-.19c0-.45-.36-.81-.81-.81h-3.37c-.45 0-.81.36-.81.81z"/><path fill="url(#G)" d="M21.985 26.48h4.99v-.19c0-.45-.36-.81-.81-.81h-3.37c-.45 0-.81.36-.81.81z"/><path fill="url(#H)" d="M21.985 26.48h4.99v-.19c0-.45-.36-.81-.81-.81h-3.37c-.45 0-.81.36-.81.81z"/><path fill="url(#I)" d="M16.335 26.48h4.99v-.19c0-.45-.36-.81-.81-.81h-3.37c-.45 0-.81.36-.81.81z"/><path fill="url(#J)" d="M16.335 26.48h4.99v-.19c0-.45-.36-.81-.81-.81h-3.37c-.45 0-.81.36-.81.81z"/><path fill="url(#K)" d="M16.335 26.48h4.99v-.19c0-.45-.36-.81-.81-.81h-3.37c-.45 0-.81.36-.81.81z"/><path fill="url(#L)" d="M10.665 26.48h4.99v-.19c0-.45-.36-.81-.81-.81h-3.37c-.45 0-.81.36-.81.81z"/><path fill="url(#M)" d="M10.665 26.48h4.99v-.19c0-.45-.36-.81-.81-.81h-3.37c-.45 0-.81.36-.81.81z"/><path fill="url(#N)" d="M10.665 26.48h4.99v-.19c0-.45-.36-.81-.81-.81h-3.37c-.45 0-.81.36-.81.81z"/><path fill="url(#O)" d="M5.005 26.48h4.99v-.19c0-.45-.36-.81-.81-.81h-3.37c-.45 0-.81.36-.81.81z"/><path fill="url(#P)" d="M5.005 26.48h4.99v-.19c0-.45-.36-.81-.81-.81h-3.37c-.45 0-.81.36-.81.81z"/><path fill="url(#Q)" d="M5.005 26.48h4.99v-.19c0-.45-.36-.81-.81-.81h-3.37c-.45 0-.81.36-.81.81z"/><g filter="url(#R)"><path fill="url(#S)" d="m28.775 9.67-12.52-7.11a.54.54 0 0 0-.5 0L3.235 9.67c-.22.13-.3.4-.17.62.09.14.24.22.4.22q.12 0 .24-.06l12.07-6.85a.47.47 0 0 1 .46 0l12.07 6.85c.07.04.16.06.24.06.16 0 .32-.08.4-.22.13-.22.06-.5-.17-.62"/></g><g filter="url(#T)"><path stroke="#dad0df" stroke-linecap="round" stroke-width=".3" d="M16.103 2.83 28.73 9.984"/></g><g filter="url(#U)"><path stroke="url(#V)" stroke-linecap="round" stroke-width=".3" d="m3.682 10 11.875-6.75"/></g><defs><linearGradient id="a" x1="16.503" x2="16.503" y1="11.686" y2="26.48" gradientUnits="userSpaceOnUse"><stop stop-color="#35303b"/><stop offset="1" stop-color="#65527a"/></linearGradient><linearGradient id="b" x1="29.297" x2="28.197" y1="28.404" y2="28.404" gradientUnits="userSpaceOnUse"><stop stop-color="#fcf2ff"/><stop offset="1" stop-color="#fcf2ff" stop-opacity="0"/></linearGradient><linearGradient id="c" x1="16" x2="16" y1="26.47" y2="27.241" gradientUnits="userSpaceOnUse"><stop stop-color="#ccc4d0"/><stop offset="1" stop-color="#ccc4d0" stop-opacity="0"/></linearGradient><linearGradient id="d" x1="2.93" x2="3.856" y1="29.47" y2="29.47" gradientUnits="userSpaceOnUse"><stop stop-color="#7a7680"/><stop offset="1" stop-color="#7a7680" stop-opacity="0"/></linearGradient><linearGradient id="e" x1="27.995" x2="27.358" y1="12.49" y2="12.49" gradientUnits="userSpaceOnUse"><stop stop-color="#e8dfef"/><stop offset="1" stop-color="#e8dfef" stop-opacity="0"/></linearGradient><linearGradient id="f" x1="16.015" x2="16.015" y1="12.733" y2="11.898" gradientUnits="userSpaceOnUse"><stop stop-color="#726483"/><stop offset="1" stop-color="#726483" stop-opacity="0"/></linearGradient><linearGradient id="g" x1="3.886" x2="4.761" y1="12.49" y2="12.49" gradientUnits="userSpaceOnUse"><stop stop-color="#706d76"/><stop offset="1" stop-color="#706d76" stop-opacity="0"/></linearGradient><linearGradient id="h" x1="6.006" x2="9.432" y1="19.511" y2="19.511" gradientUnits="userSpaceOnUse"><stop stop-color="#817c86"/><stop offset=".573" stop-color="#cfc7d7"/><stop offset=".672" stop-color="#cfc7d7"/><stop offset="1" stop-color="#9a94a1"/></linearGradient><linearGradient id="i" x1="7.5" x2="7.5" y1="13.219" y2="13.891" gradientUnits="userSpaceOnUse"><stop stop-color="#71677d"/><stop offset="1" stop-color="#71677d" stop-opacity="0"/></linearGradient><linearGradient id="j" x1="11.666" x2="15.092" y1="19.511" y2="19.511" gradientUnits="userSpaceOnUse"><stop stop-color="#7b7681"/><stop offset=".573" stop-color="#bfb9c8"/><stop offset=".672" stop-color="#bfb9c8"/><stop offset="1" stop-color="#b2abb8"/></linearGradient><linearGradient id="k" x1="13.16" x2="13.16" y1="13.219" y2="13.891" gradientUnits="userSpaceOnUse"><stop stop-color="#71677d"/><stop offset="1" stop-color="#71677d" stop-opacity="0"/></linearGradient><linearGradient id="l" x1="17.326" x2="20.752" y1="19.511" y2="19.511" gradientUnits="userSpaceOnUse"><stop stop-color="#6e6a73"/><stop offset=".573" stop-color="#cbc3d3"/><stop offset=".672" stop-color="#cbc3d3"/><stop offset="1" stop-color="#bfb9c5"/></linearGradient><linearGradient id="m" x1="18.82" x2="18.82" y1="13.219" y2="13.891" gradientUnits="userSpaceOnUse"><stop stop-color="#71677d"/><stop offset="1" stop-color="#71677d" stop-opacity="0"/></linearGradient><linearGradient id="n" x1="22.986" x2="26.412" y1="19.511" y2="19.511" gradientUnits="userSpaceOnUse"><stop stop-color="#615e6a"/><stop offset=".573" stop-color="#dad2e2"/><stop offset=".672" stop-color="#dcd4e4"/><stop offset="1" stop-color="#d5cddc"/></linearGradient><linearGradient id="o" x1="24.48" x2="24.48" y1="13.219" y2="13.891" gradientUnits="userSpaceOnUse"><stop stop-color="#71677d"/><stop offset="1" stop-color="#71677d" stop-opacity="0"/></linearGradient><linearGradient id="p" x1="19.871" x2="16.006" y1="4.385" y2="11.072" gradientUnits="userSpaceOnUse"><stop stop-color="#b3acbb"/><stop offset="1" stop-color="#aca5b2"/></linearGradient><linearGradient id="q" x1="20.449" x2="20.09" y1="5.854" y2="6.479" gradientUnits="userSpaceOnUse"><stop stop-color="#645a6f"/><stop offset="1" stop-color="#645a6f" stop-opacity="0"/></linearGradient><linearGradient id="r" x1="16.006" x2="16.006" y1="11.063" y2="10.362" gradientUnits="userSpaceOnUse"><stop stop-color="#878190"/><stop offset="1" stop-color="#878190" stop-opacity="0"/></linearGradient><linearGradient id="s" x1="11.87" x2="12.073" y1="5.531" y2="5.891" gradientUnits="userSpaceOnUse"><stop offset=".345" stop-color="#857f8e"/><stop offset="1" stop-color="#857f8e" stop-opacity="0"/></linearGradient><linearGradient id="u" x1="7.51" x2="7.51" y1="12.18" y2="12.761" gradientUnits="userSpaceOnUse"><stop stop-color="#564f5e"/><stop offset="1" stop-color="#564f5e" stop-opacity="0"/></linearGradient><linearGradient id="v" x1="7.51" x2="7.51" y1="13.771" y2="13.298" gradientUnits="userSpaceOnUse"><stop stop-color="#564f5e"/><stop offset="1" stop-color="#564f5e" stop-opacity="0"/></linearGradient><linearGradient id="x" x1="13.16" x2="13.16" y1="12.18" y2="12.761" gradientUnits="userSpaceOnUse"><stop stop-color="#564f5e"/><stop offset="1" stop-color="#564f5e" stop-opacity="0"/></linearGradient><linearGradient id="y" x1="13.16" x2="13.16" y1="13.771" y2="13.298" gradientUnits="userSpaceOnUse"><stop stop-color="#564f5e"/><stop offset="1" stop-color="#564f5e" stop-opacity="0"/></linearGradient><linearGradient id="A" x1="18.83" x2="18.83" y1="12.18" y2="12.761" gradientUnits="userSpaceOnUse"><stop stop-color="#564f5e"/><stop offset="1" stop-color="#564f5e" stop-opacity="0"/></linearGradient><linearGradient id="B" x1="18.83" x2="18.83" y1="13.771" y2="13.298" gradientUnits="userSpaceOnUse"><stop stop-color="#564f5e"/><stop offset="1" stop-color="#564f5e" stop-opacity="0"/></linearGradient><linearGradient id="D" x1="24.49" x2="24.49" y1="12.18" y2="12.761" gradientUnits="userSpaceOnUse"><stop stop-color="#564f5e"/><stop offset="1" stop-color="#564f5e" stop-opacity="0"/></linearGradient><linearGradient id="E" x1="24.49" x2="24.49" y1="13.771" y2="13.298" gradientUnits="userSpaceOnUse"><stop stop-color="#564f5e"/><stop offset="1" stop-color="#564f5e" stop-opacity="0"/></linearGradient><linearGradient id="G" x1="22.96" x2="23.819" y1="27.351" y2="25.778" gradientUnits="userSpaceOnUse"><stop stop-color="#656067"/><stop offset="1" stop-color="#656067" stop-opacity="0"/></linearGradient><linearGradient id="H" x1="27.631" x2="26.319" y1="26.156" y2="26.48" gradientUnits="userSpaceOnUse"><stop stop-color="#807c87"/><stop offset="1" stop-color="#807c87" stop-opacity="0"/></linearGradient><linearGradient id="J" x1="17.311" x2="18.169" y1="27.351" y2="25.778" gradientUnits="userSpaceOnUse"><stop stop-color="#656067"/><stop offset="1" stop-color="#656067" stop-opacity="0"/></linearGradient><linearGradient id="K" x1="21.981" x2="20.669" y1="26.156" y2="26.48" gradientUnits="userSpaceOnUse"><stop stop-color="#807c87"/><stop offset="1" stop-color="#807c87" stop-opacity="0"/></linearGradient><linearGradient id="M" x1="11.641" x2="12.499" y1="27.351" y2="25.778" gradientUnits="userSpaceOnUse"><stop stop-color="#656067"/><stop offset="1" stop-color="#656067" stop-opacity="0"/></linearGradient><linearGradient id="N" x1="16.311" x2="14.999" y1="26.156" y2="26.48" gradientUnits="userSpaceOnUse"><stop stop-color="#807c87"/><stop offset="1" stop-color="#807c87" stop-opacity="0"/></linearGradient><linearGradient id="P" x1="5.981" x2="6.839" y1="27.351" y2="25.778" gradientUnits="userSpaceOnUse"><stop stop-color="#656067"/><stop offset="1" stop-color="#656067" stop-opacity="0"/></linearGradient><linearGradient id="Q" x1="10.651" x2="9.339" y1="26.156" y2="26.48" gradientUnits="userSpaceOnUse"><stop stop-color="#807c87"/><stop offset="1" stop-color="#807c87" stop-opacity="0"/></linearGradient><linearGradient id="S" x1="26.381" x2="4.551" y1="8.533" y2="8.533" gradientUnits="userSpaceOnUse"><stop stop-color="#ada7b8"/><stop offset="1" stop-color="#9f99a4"/></linearGradient><linearGradient id="V" x1="5.339" x2="19.182" y1="9.156" y2=".844" gradientUnits="userSpaceOnUse"><stop stop-color="#b3adba"/><stop offset="1" stop-color="#b3adba" stop-opacity="0"/></linearGradient><radialGradient id="t" cx="0" cy="0" r="1" gradientTransform="matrix(-3.24521 0 0 -.937 8.797 12.993)" gradientUnits="userSpaceOnUse"><stop stop-color="#91899d"/><stop offset="1" stop-color="#6d6976"/></radialGradient><radialGradient id="w" cx="0" cy="0" r="1" gradientTransform="matrix(-3.2452 0 0 -.937 14.447 12.993)" gradientUnits="userSpaceOnUse"><stop stop-color="#91899d"/><stop offset="1" stop-color="#6d6976"/></radialGradient><radialGradient id="z" cx="0" cy="0" r="1" gradientTransform="matrix(-3.2452 0 0 -.937 20.117 12.993)" gradientUnits="userSpaceOnUse"><stop stop-color="#91899d"/><stop offset="1" stop-color="#6d6976"/></radialGradient><radialGradient id="C" cx="0" cy="0" r="1" gradientTransform="matrix(-3.2452 0 0 -.937 25.777 12.993)" gradientUnits="userSpaceOnUse"><stop stop-color="#91899d"/><stop offset="1" stop-color="#6d6976"/></radialGradient><radialGradient id="F" cx="0" cy="0" r="1" gradientTransform="matrix(-2.58035 0 0 -.66846 25.561 25.976)" gradientUnits="userSpaceOnUse"><stop stop-color="#f7edfd"/><stop offset="1" stop-color="#a29ca7"/></radialGradient><radialGradient id="I" cx="0" cy="0" r="1" gradientTransform="matrix(-2.58035 0 0 -.66846 19.911 25.976)" gradientUnits="userSpaceOnUse"><stop stop-color="#e4daea"/><stop offset="1" stop-color="#9a949e"/></radialGradient><radialGradient id="L" cx="0" cy="0" r="1" gradientTransform="matrix(-2.58035 0 0 -.66846 14.241 25.976)" gradientUnits="userSpaceOnUse"><stop stop-color="#e4daea"/><stop offset="1" stop-color="#9a949e"/></radialGradient><radialGradient id="O" cx="0" cy="0" r="1" gradientTransform="matrix(-2.58035 0 0 -.66846 8.581 25.976)" gradientUnits="userSpaceOnUse"><stop stop-color="#e4daea"/><stop offset="1" stop-color="#9a949e"/></radialGradient><filter id="R" width="26.207" height="8.11" x="3.002" y="2.4" color-interpolation-filters="sRGB" filterUnits="userSpaceOnUse"><feFlood flood-opacity="0" result="BackgroundImageFix"/><feBlend in="SourceGraphic" in2="BackgroundImageFix" result="shape"/><feColorMatrix in="SourceAlpha" result="hardAlpha" values="0 0 0 0 0 0 0 0 0 0 0 0 0 0 0 0 0 0 127 0"/><feOffset dx=".2" dy="-.1"/><feGaussianBlur stdDeviation=".15"/><feComposite in2="hardAlpha" k2="-1" k3="1" operator="arithmetic"/><feColorMatrix values="0 0 0 0 0.498039 0 0 0 0 0.462745 0 0 0 0 0.54902 0 0 0 1 0"/><feBlend in2="shape" result="effect1_innerShadow_18_5526"/></filter><filter id="T" width="13.526" height="8.055" x="15.653" y="2.38" color-interpolation-filters="sRGB" filterUnits="userSpaceOnUse"><feFlood flood-opacity="0" result="BackgroundImageFix"/><feBlend in="SourceGraphic" in2="BackgroundImageFix" result="shape"/><feGaussianBlur result="effect1_foregroundBlur_18_5526" stdDeviation=".15"/></filter><filter id="U" width="12.775" height="7.65" x="3.232" y="2.8" color-interpolation-filters="sRGB" filterUnits="userSpaceOnUse"><feFlood flood-opacity="0" result="BackgroundImageFix"/><feBlend in="SourceGraphic" in2="BackgroundImageFix" result="shape"/><feGaussianBlur result="effect1_foregroundBlur_18_5526" stdDeviation=".15"/></filter></defs></svg>