<svg xmlns="http://www.w3.org/2000/svg" width="32" height="32" fill="none" viewBox="0 0 32 32"><rect width="19.938" height="27.922" x="6.031" y="2.035" fill="url(#a)" rx="2.6"/><rect width="19.938" height="27.922" x="6.031" y="2.035" fill="url(#b)" rx="2.6"/><g filter="url(#c)"><path fill="#ff9544" d="M9.203 9.08a.6.6 0 0 1 .6-.6h2.113a.6.6 0 0 1 .6.6v2.113a.6.6 0 0 1-.6.6H9.803a.6.6 0 0 1-.6-.6z"/><path fill="url(#d)" d="M9.203 9.08a.6.6 0 0 1 .6-.6h2.113a.6.6 0 0 1 .6.6v2.113a.6.6 0 0 1-.6.6H9.803a.6.6 0 0 1-.6-.6z"/></g><g filter="url(#e)"><path fill="#38c6ff" d="M14.344 9.08a.6.6 0 0 1 .6-.6h2.112a.6.6 0 0 1 .6.6v2.113a.6.6 0 0 1-.6.6h-2.112a.6.6 0 0 1-.6-.6z"/></g><g filter="url(#f)"><path fill="#ffec58" d="M19.484 9.08a.6.6 0 0 1 .6-.6h2.113a.6.6 0 0 1 .6.6v2.113a.6.6 0 0 1-.6.6h-2.113a.6.6 0 0 1-.6-.6z"/></g><g filter="url(#g)"><path fill="#38c6ff" d="M9.203 14.94a.6.6 0 0 1 .6-.6h2.113a.6.6 0 0 1 .6.6v2.112a.6.6 0 0 1-.6.6H9.803a.6.6 0 0 1-.6-.6z"/></g><g filter="url(#h)"><path fill="#ff9544" d="M9.203 20.799a.6.6 0 0 1 .6-.6h2.113a.6.6 0 0 1 .6.6v2.112a.6.6 0 0 1-.6.6H9.803a.6.6 0 0 1-.6-.6z"/><path fill="url(#i)" d="M9.203 20.799a.6.6 0 0 1 .6-.6h2.113a.6.6 0 0 1 .6.6v2.112a.6.6 0 0 1-.6.6H9.803a.6.6 0 0 1-.6-.6z"/></g><g filter="url(#j)"><path fill="#ffec58" d="M14.344 14.94a.6.6 0 0 1 .6-.6h2.112a.6.6 0 0 1 .6.6v2.112a.6.6 0 0 1-.6.6h-2.112a.6.6 0 0 1-.6-.6z"/></g><g filter="url(#k)"><path fill="#38c6ff" d="M14.344 20.799a.6.6 0 0 1 .6-.6h2.112a.6.6 0 0 1 .6.6v2.112a.6.6 0 0 1-.6.6h-2.112a.6.6 0 0 1-.6-.6z"/></g><g filter="url(#l)"><path fill="#ff9544" d="M19.484 14.94a.6.6 0 0 1 .6-.6h2.113a.6.6 0 0 1 .6.6v2.112a.6.6 0 0 1-.6.6h-2.113a.6.6 0 0 1-.6-.6z"/><path fill="url(#m)" d="M19.484 14.94a.6.6 0 0 1 .6-.6h2.113a.6.6 0 0 1 .6.6v2.112a.6.6 0 0 1-.6.6h-2.113a.6.6 0 0 1-.6-.6z"/></g><g filter="url(#n)"><path fill="#ffec58" d="M19.484 20.799a.6.6 0 0 1 .6-.6h2.113a.6.6 0 0 1 .6.6v2.112a.6.6 0 0 1-.6.6h-2.113a.6.6 0 0 1-.6-.6z"/></g><g filter="url(#o)"><path fill="url(#p)" d="M23.688 5.597h1.531v21.844h-1.531z"/></g><g filter="url(#q)"><path fill="url(#r)" d="M25.969 6.16H6.03V4.635a2.6 2.6 0 0 1 2.6-2.6h14.74a2.6 2.6 0 0 1 2.6 2.6z"/><path fill="url(#s)" d="M25.969 6.16H6.03V4.635a2.6 2.6 0 0 1 2.6-2.6h14.74a2.6 2.6 0 0 1 2.6 2.6z"/><path fill="url(#t)" d="M25.969 6.16H6.03V4.635a2.6 2.6 0 0 1 2.6-2.6h14.74a2.6 2.6 0 0 1 2.6 2.6z"/><path fill="url(#u)" d="M25.969 6.16H6.03V4.635a2.6 2.6 0 0 1 2.6-2.6h14.74a2.6 2.6 0 0 1 2.6 2.6z"/><path fill="url(#v)" d="M25.969 6.16H6.03V4.635a2.6 2.6 0 0 1 2.6-2.6h14.74a2.6 2.6 0 0 1 2.6 2.6z"/></g><path fill="url(#w)" d="M25.969 25.878v1.479a2.6 2.6 0 0 1-2.6 2.6H8.63a2.6 2.6 0 0 1-2.6-2.6v-1.479z"/><path fill="url(#x)" d="M25.969 25.878v1.479a2.6 2.6 0 0 1-2.6 2.6H8.63a2.6 2.6 0 0 1-2.6-2.6v-1.479z"/><path fill="url(#y)" d="M25.969 25.878v1.479a2.6 2.6 0 0 1-2.6 2.6H8.63a2.6 2.6 0 0 1-2.6-2.6v-1.479z"/><path fill="url(#z)" d="M25.969 25.878v1.479a2.6 2.6 0 0 1-2.6 2.6H8.63a2.6 2.6 0 0 1-2.6-2.6v-1.479z"/><defs><linearGradient id="a" x1="16" x2="16" y1="7.441" y2="26.003" gradientUnits="userSpaceOnUse"><stop stop-color="#62326d"/><stop offset="1" stop-color="#434486"/></linearGradient><linearGradient id="b" x1="6.031" x2="8.344" y1="21.816" y2="21.878" gradientUnits="userSpaceOnUse"><stop offset=".031" stop-color="#412c4c"/><stop offset="1" stop-color="#412c4c" stop-opacity="0"/></linearGradient><linearGradient id="d" x1="9.359" x2="10.406" y1="10.957" y2="10.957" gradientUnits="userSpaceOnUse"><stop offset=".333" stop-color="#ff945c"/><stop offset="1" stop-color="#ff945c" stop-opacity="0"/></linearGradient><linearGradient id="i" x1="9.359" x2="10.406" y1="22.675" y2="22.675" gradientUnits="userSpaceOnUse"><stop offset=".333" stop-color="#ff945c"/><stop offset="1" stop-color="#ff945c" stop-opacity="0"/></linearGradient><linearGradient id="m" x1="19.641" x2="20.688" y1="16.816" y2="16.816" gradientUnits="userSpaceOnUse"><stop offset=".333" stop-color="#ff945c"/><stop offset="1" stop-color="#ff945c" stop-opacity="0"/></linearGradient><linearGradient id="p" x1="24.453" x2="24.453" y1="5.597" y2="27.441" gradientUnits="userSpaceOnUse"><stop stop-color="#674876"/><stop offset="1" stop-color="#555187"/></linearGradient><linearGradient id="r" x1="16" x2="16" y1="2.035" y2="6.16" gradientUnits="userSpaceOnUse"><stop stop-color="#636ab6"/><stop offset="1" stop-color="#6c6ebe"/></linearGradient><linearGradient id="s" x1="17.156" x2="17.156" y1="6.316" y2="5.628" gradientUnits="userSpaceOnUse"><stop stop-color="#6062b1"/><stop offset="1" stop-color="#6062b1" stop-opacity="0"/></linearGradient><linearGradient id="t" x1="6.031" x2="9.25" y1="6.16" y2="6.16" gradientUnits="userSpaceOnUse"><stop offset=".136" stop-color="#484b86"/><stop offset="1" stop-color="#5e61ad" stop-opacity="0"/></linearGradient><linearGradient id="u" x1="25.969" x2="23.031" y1="6.16" y2="6.16" gradientUnits="userSpaceOnUse"><stop offset=".128" stop-color="#7277c8"/><stop offset="1" stop-color="#7277c8" stop-opacity="0"/></linearGradient><linearGradient id="w" x1="16" x2="16" y1="25.878" y2="29.956" gradientUnits="userSpaceOnUse"><stop stop-color="#6b4390"/><stop offset="1" stop-color="#76509e"/></linearGradient><linearGradient id="x" x1="6.031" x2="8.438" y1="27.128" y2="27.128" gradientUnits="userSpaceOnUse"><stop offset=".164" stop-color="#4f3d6c"/><stop offset="1" stop-color="#6e4693" stop-opacity="0"/></linearGradient><linearGradient id="z" x1="15.688" x2="15.688" y1="25.597" y2="26.191" gradientUnits="userSpaceOnUse"><stop offset=".158" stop-color="#5e3d7f"/><stop offset="1" stop-color="#5e3d7f" stop-opacity="0"/></linearGradient><filter id="c" width="3.913" height="3.913" x="8.903" y="8.18" color-interpolation-filters="sRGB" filterUnits="userSpaceOnUse"><feFlood flood-opacity="0" result="BackgroundImageFix"/><feBlend in="SourceGraphic" in2="BackgroundImageFix" result="shape"/><feColorMatrix in="SourceAlpha" result="hardAlpha" values="0 0 0 0 0 0 0 0 0 0 0 0 0 0 0 0 0 0 127 0"/><feOffset dx="-.3" dy="-.3"/><feGaussianBlur stdDeviation=".2"/><feComposite in2="hardAlpha" k2="-1" k3="1" operator="arithmetic"/><feColorMatrix values="0 0 0 0 0.913725 0 0 0 0 0.384314 0 0 0 0 0.129412 0 0 0 1 0"/><feBlend in2="shape" result="effect1_innerShadow_18_19048"/><feColorMatrix in="SourceAlpha" result="hardAlpha" values="0 0 0 0 0 0 0 0 0 0 0 0 0 0 0 0 0 0 127 0"/><feOffset dx=".3" dy=".3"/><feGaussianBlur stdDeviation=".2"/><feComposite in2="hardAlpha" k2="-1" k3="1" operator="arithmetic"/><feColorMatrix values="0 0 0 0 1 0 0 0 0 0.498039 0 0 0 0 0.160784 0 0 0 1 0"/><feBlend in2="effect1_innerShadow_18_19048" result="effect2_innerShadow_18_19048"/></filter><filter id="e" width="3.913" height="3.913" x="14.044" y="8.18" color-interpolation-filters="sRGB" filterUnits="userSpaceOnUse"><feFlood flood-opacity="0" result="BackgroundImageFix"/><feBlend in="SourceGraphic" in2="BackgroundImageFix" result="shape"/><feColorMatrix in="SourceAlpha" result="hardAlpha" values="0 0 0 0 0 0 0 0 0 0 0 0 0 0 0 0 0 0 127 0"/><feOffset dx="-.3" dy="-.3"/><feGaussianBlur stdDeviation=".25"/><feComposite in2="hardAlpha" k2="-1" k3="1" operator="arithmetic"/><feColorMatrix values="0 0 0 0 0.0980392 0 0 0 0 0.572549 0 0 0 0 0.866667 0 0 0 1 0"/><feBlend in2="shape" result="effect1_innerShadow_18_19048"/><feColorMatrix in="SourceAlpha" result="hardAlpha" values="0 0 0 0 0 0 0 0 0 0 0 0 0 0 0 0 0 0 127 0"/><feOffset dx=".3" dy=".3"/><feGaussianBlur stdDeviation=".2"/><feComposite in2="hardAlpha" k2="-1" k3="1" operator="arithmetic"/><feColorMatrix values="0 0 0 0 0.0745098 0 0 0 0 0.709804 0 0 0 0 1 0 0 0 1 0"/><feBlend in2="effect1_innerShadow_18_19048" result="effect2_innerShadow_18_19048"/></filter><filter id="f" width="3.913" height="3.913" x="19.184" y="8.18" color-interpolation-filters="sRGB" filterUnits="userSpaceOnUse"><feFlood flood-opacity="0" result="BackgroundImageFix"/><feBlend in="SourceGraphic" in2="BackgroundImageFix" result="shape"/><feColorMatrix in="SourceAlpha" result="hardAlpha" values="0 0 0 0 0 0 0 0 0 0 0 0 0 0 0 0 0 0 127 0"/><feOffset dx="-.3" dy="-.3"/><feGaussianBlur stdDeviation=".25"/><feComposite in2="hardAlpha" k2="-1" k3="1" operator="arithmetic"/><feColorMatrix values="0 0 0 0 0.858824 0 0 0 0 0.752941 0 0 0 0 0.188235 0 0 0 1 0"/><feBlend in2="shape" result="effect1_innerShadow_18_19048"/><feColorMatrix in="SourceAlpha" result="hardAlpha" values="0 0 0 0 0 0 0 0 0 0 0 0 0 0 0 0 0 0 127 0"/><feOffset dx=".3" dy=".3"/><feGaussianBlur stdDeviation=".2"/><feComposite in2="hardAlpha" k2="-1" k3="1" operator="arithmetic"/><feColorMatrix values="0 0 0 0 0.968627 0 0 0 0 0.858824 0 0 0 0 0.223529 0 0 0 1 0"/><feBlend in2="effect1_innerShadow_18_19048" result="effect2_innerShadow_18_19048"/></filter><filter id="g" width="3.913" height="3.913" x="8.903" y="14.039" color-interpolation-filters="sRGB" filterUnits="userSpaceOnUse"><feFlood flood-opacity="0" result="BackgroundImageFix"/><feBlend in="SourceGraphic" in2="BackgroundImageFix" result="shape"/><feColorMatrix in="SourceAlpha" result="hardAlpha" values="0 0 0 0 0 0 0 0 0 0 0 0 0 0 0 0 0 0 127 0"/><feOffset dx="-.3" dy="-.3"/><feGaussianBlur stdDeviation=".25"/><feComposite in2="hardAlpha" k2="-1" k3="1" operator="arithmetic"/><feColorMatrix values="0 0 0 0 0.0980392 0 0 0 0 0.572549 0 0 0 0 0.866667 0 0 0 1 0"/><feBlend in2="shape" result="effect1_innerShadow_18_19048"/><feColorMatrix in="SourceAlpha" result="hardAlpha" values="0 0 0 0 0 0 0 0 0 0 0 0 0 0 0 0 0 0 127 0"/><feOffset dx=".3" dy=".3"/><feGaussianBlur stdDeviation=".2"/><feComposite in2="hardAlpha" k2="-1" k3="1" operator="arithmetic"/><feColorMatrix values="0 0 0 0 0.0745098 0 0 0 0 0.709804 0 0 0 0 1 0 0 0 1 0"/><feBlend in2="effect1_innerShadow_18_19048" result="effect2_innerShadow_18_19048"/></filter><filter id="h" width="3.913" height="3.913" x="8.903" y="19.899" color-interpolation-filters="sRGB" filterUnits="userSpaceOnUse"><feFlood flood-opacity="0" result="BackgroundImageFix"/><feBlend in="SourceGraphic" in2="BackgroundImageFix" result="shape"/><feColorMatrix in="SourceAlpha" result="hardAlpha" values="0 0 0 0 0 0 0 0 0 0 0 0 0 0 0 0 0 0 127 0"/><feOffset dx="-.3" dy="-.3"/><feGaussianBlur stdDeviation=".2"/><feComposite in2="hardAlpha" k2="-1" k3="1" operator="arithmetic"/><feColorMatrix values="0 0 0 0 0.913725 0 0 0 0 0.384314 0 0 0 0 0.129412 0 0 0 1 0"/><feBlend in2="shape" result="effect1_innerShadow_18_19048"/><feColorMatrix in="SourceAlpha" result="hardAlpha" values="0 0 0 0 0 0 0 0 0 0 0 0 0 0 0 0 0 0 127 0"/><feOffset dx=".3" dy=".3"/><feGaussianBlur stdDeviation=".2"/><feComposite in2="hardAlpha" k2="-1" k3="1" operator="arithmetic"/><feColorMatrix values="0 0 0 0 1 0 0 0 0 0.498039 0 0 0 0 0.160784 0 0 0 1 0"/><feBlend in2="effect1_innerShadow_18_19048" result="effect2_innerShadow_18_19048"/></filter><filter id="j" width="3.913" height="3.913" x="14.044" y="14.039" color-interpolation-filters="sRGB" filterUnits="userSpaceOnUse"><feFlood flood-opacity="0" result="BackgroundImageFix"/><feBlend in="SourceGraphic" in2="BackgroundImageFix" result="shape"/><feColorMatrix in="SourceAlpha" result="hardAlpha" values="0 0 0 0 0 0 0 0 0 0 0 0 0 0 0 0 0 0 127 0"/><feOffset dx="-.3" dy="-.3"/><feGaussianBlur stdDeviation=".25"/><feComposite in2="hardAlpha" k2="-1" k3="1" operator="arithmetic"/><feColorMatrix values="0 0 0 0 0.858824 0 0 0 0 0.752941 0 0 0 0 0.188235 0 0 0 1 0"/><feBlend in2="shape" result="effect1_innerShadow_18_19048"/><feColorMatrix in="SourceAlpha" result="hardAlpha" values="0 0 0 0 0 0 0 0 0 0 0 0 0 0 0 0 0 0 127 0"/><feOffset dx=".3" dy=".3"/><feGaussianBlur stdDeviation=".2"/><feComposite in2="hardAlpha" k2="-1" k3="1" operator="arithmetic"/><feColorMatrix values="0 0 0 0 0.968627 0 0 0 0 0.858824 0 0 0 0 0.223529 0 0 0 1 0"/><feBlend in2="effect1_innerShadow_18_19048" result="effect2_innerShadow_18_19048"/></filter><filter id="k" width="3.913" height="3.913" x="14.044" y="19.899" color-interpolation-filters="sRGB" filterUnits="userSpaceOnUse"><feFlood flood-opacity="0" result="BackgroundImageFix"/><feBlend in="SourceGraphic" in2="BackgroundImageFix" result="shape"/><feColorMatrix in="SourceAlpha" result="hardAlpha" values="0 0 0 0 0 0 0 0 0 0 0 0 0 0 0 0 0 0 127 0"/><feOffset dx="-.3" dy="-.3"/><feGaussianBlur stdDeviation=".25"/><feComposite in2="hardAlpha" k2="-1" k3="1" operator="arithmetic"/><feColorMatrix values="0 0 0 0 0.0980392 0 0 0 0 0.572549 0 0 0 0 0.866667 0 0 0 1 0"/><feBlend in2="shape" result="effect1_innerShadow_18_19048"/><feColorMatrix in="SourceAlpha" result="hardAlpha" values="0 0 0 0 0 0 0 0 0 0 0 0 0 0 0 0 0 0 127 0"/><feOffset dx=".3" dy=".3"/><feGaussianBlur stdDeviation=".2"/><feComposite in2="hardAlpha" k2="-1" k3="1" operator="arithmetic"/><feColorMatrix values="0 0 0 0 0.0745098 0 0 0 0 0.709804 0 0 0 0 1 0 0 0 1 0"/><feBlend in2="effect1_innerShadow_18_19048" result="effect2_innerShadow_18_19048"/></filter><filter id="l" width="3.913" height="3.913" x="19.184" y="14.039" color-interpolation-filters="sRGB" filterUnits="userSpaceOnUse"><feFlood flood-opacity="0" result="BackgroundImageFix"/><feBlend in="SourceGraphic" in2="BackgroundImageFix" result="shape"/><feColorMatrix in="SourceAlpha" result="hardAlpha" values="0 0 0 0 0 0 0 0 0 0 0 0 0 0 0 0 0 0 127 0"/><feOffset dx="-.3" dy="-.3"/><feGaussianBlur stdDeviation=".2"/><feComposite in2="hardAlpha" k2="-1" k3="1" operator="arithmetic"/><feColorMatrix values="0 0 0 0 0.913725 0 0 0 0 0.384314 0 0 0 0 0.129412 0 0 0 1 0"/><feBlend in2="shape" result="effect1_innerShadow_18_19048"/><feColorMatrix in="SourceAlpha" result="hardAlpha" values="0 0 0 0 0 0 0 0 0 0 0 0 0 0 0 0 0 0 127 0"/><feOffset dx=".3" dy=".3"/><feGaussianBlur stdDeviation=".2"/><feComposite in2="hardAlpha" k2="-1" k3="1" operator="arithmetic"/><feColorMatrix values="0 0 0 0 1 0 0 0 0 0.498039 0 0 0 0 0.160784 0 0 0 1 0"/><feBlend in2="effect1_innerShadow_18_19048" result="effect2_innerShadow_18_19048"/></filter><filter id="n" width="3.913" height="3.913" x="19.184" y="19.899" color-interpolation-filters="sRGB" filterUnits="userSpaceOnUse"><feFlood flood-opacity="0" result="BackgroundImageFix"/><feBlend in="SourceGraphic" in2="BackgroundImageFix" result="shape"/><feColorMatrix in="SourceAlpha" result="hardAlpha" values="0 0 0 0 0 0 0 0 0 0 0 0 0 0 0 0 0 0 127 0"/><feOffset dx="-.3" dy="-.3"/><feGaussianBlur stdDeviation=".25"/><feComposite in2="hardAlpha" k2="-1" k3="1" operator="arithmetic"/><feColorMatrix values="0 0 0 0 0.858824 0 0 0 0 0.752941 0 0 0 0 0.188235 0 0 0 1 0"/><feBlend in2="shape" result="effect1_innerShadow_18_19048"/><feColorMatrix in="SourceAlpha" result="hardAlpha" values="0 0 0 0 0 0 0 0 0 0 0 0 0 0 0 0 0 0 127 0"/><feOffset dx=".3" dy=".3"/><feGaussianBlur stdDeviation=".2"/><feComposite in2="hardAlpha" k2="-1" k3="1" operator="arithmetic"/><feColorMatrix values="0 0 0 0 0.968627 0 0 0 0 0.858824 0 0 0 0 0.223529 0 0 0 1 0"/><feBlend in2="effect1_innerShadow_18_19048" result="effect2_innerShadow_18_19048"/></filter><filter id="o" width="3.531" height="23.844" x="22.688" y="4.597" color-interpolation-filters="sRGB" filterUnits="userSpaceOnUse"><feFlood flood-opacity="0" result="BackgroundImageFix"/><feBlend in="SourceGraphic" in2="BackgroundImageFix" result="shape"/><feGaussianBlur result="effect1_foregroundBlur_18_19048" stdDeviation=".5"/></filter><filter id="q" width="19.938" height="4.225" x="6.031" y="2.035" color-interpolation-filters="sRGB" filterUnits="userSpaceOnUse"><feFlood flood-opacity="0" result="BackgroundImageFix"/><feBlend in="SourceGraphic" in2="BackgroundImageFix" result="shape"/><feColorMatrix in="SourceAlpha" result="hardAlpha" values="0 0 0 0 0 0 0 0 0 0 0 0 0 0 0 0 0 0 127 0"/><feOffset dy=".1"/><feGaussianBlur stdDeviation=".375"/><feComposite in2="hardAlpha" k2="-1" k3="1" operator="arithmetic"/><feColorMatrix values="0 0 0 0 0.380392 0 0 0 0 0.407843 0 0 0 0 0.666667 0 0 0 1 0"/><feBlend in2="shape" result="effect1_innerShadow_18_19048"/></filter><radialGradient id="v" cx="0" cy="0" r="1" gradientTransform="matrix(-.65625 0 0 -3.17187 25.969 5.878)" gradientUnits="userSpaceOnUse"><stop stop-color="#6c6fb4"/><stop offset="1" stop-color="#6c6fb4" stop-opacity="0"/></radialGradient><radialGradient id="y" cx="0" cy="0" r="1" gradientTransform="matrix(0 3.09375 -1.625 0 24.313 25.535)" gradientUnits="userSpaceOnUse"><stop stop-color="#6b5094"/><stop offset="1" stop-color="#6b5094" stop-opacity="0"/></radialGradient></defs></svg>