<svg xmlns="http://www.w3.org/2000/svg" width="32" height="32" fill="none" viewBox="0 0 32 32"><path fill="#d8d0de" d="M26.373 10.027a.1.1 0 0 1 .1-.1h1.323a2.2 2.2 0 0 1 2.2 2.2v10.686a2.2 2.2 0 0 1-2.2 2.2h-1.323a.1.1 0 0 1-.1-.1z"/><path fill="url(#a)" d="M26.373 10.027a.1.1 0 0 1 .1-.1h1.323a2.2 2.2 0 0 1 2.2 2.2v10.686a2.2 2.2 0 0 1-2.2 2.2h-1.323a.1.1 0 0 1-.1-.1z"/><path fill="url(#b)" d="M26.373 10.027a.1.1 0 0 1 .1-.1h1.323a2.2 2.2 0 0 1 2.2 2.2v10.686a2.2 2.2 0 0 1-2.2 2.2h-1.323a.1.1 0 0 1-.1-.1z"/><path fill="#cfc4d5" d="M5.627 10.027a.1.1 0 0 0-.1-.1H4.204a2.2 2.2 0 0 0-2.2 2.2v10.686a2.2 2.2 0 0 0 2.2 2.2h1.323a.1.1 0 0 0 .1-.1z"/><path fill="url(#c)" d="M5.627 10.027a.1.1 0 0 0-.1-.1H4.204a2.2 2.2 0 0 0-2.2 2.2v10.686a2.2 2.2 0 0 0 2.2 2.2h1.323a.1.1 0 0 0 .1-.1z"/><path fill="url(#d)" d="M5.627 10.027a.1.1 0 0 0-.1-.1H4.204a2.2 2.2 0 0 0-2.2 2.2v10.686a2.2 2.2 0 0 0 2.2 2.2h1.323a.1.1 0 0 0 .1-.1z"/><g filter="url(#e)"><rect width="11.023" height="13.441" x="18.164" y="10.695" fill="#c9c0d3" rx="1.25"/></g><g filter="url(#f)"><rect width="11.023" height="13.441" x="2.723" y="10.695" fill="#bfb6c8" rx="1.25"/></g><path fill="url(#g)" d="M8.234 6.302a2.2 2.2 0 0 1 2.2-2.2h11.132a2.2 2.2 0 0 1 2.2 2.2v8.08H8.234z"/><path fill="url(#h)" d="M15 4.102h-4.566a2.2 2.2 0 0 0-2.2 2.2v8.08H15z"/><path fill="url(#i)" d="M15 4.102h-4.566a2.2 2.2 0 0 0-2.2 2.2v8.08H15z"/><path fill="url(#j)" d="M10 3.823a1.8 1.8 0 0 1 1.8-1.8h8.4a1.8 1.8 0 0 1 1.8 1.8v10.56H10z"/><path fill="url(#k)" d="M5.627 10.027a.1.1 0 0 1 .1-.1h20.546a.1.1 0 0 1 .1.1v14.886a.1.1 0 0 1-.1.1H5.727a.1.1 0 0 1-.1-.1z"/><path fill="url(#l)" d="M5.627 10.027a.1.1 0 0 1 .1-.1h20.546a.1.1 0 0 1 .1.1v14.886a.1.1 0 0 1-.1.1H5.727a.1.1 0 0 1-.1-.1z"/><path fill="url(#m)" d="M5.627 10.027a.1.1 0 0 1 .1-.1h20.546a.1.1 0 0 1 .1.1v14.886a.1.1 0 0 1-.1.1H5.727a.1.1 0 0 1-.1-.1z"/><g filter="url(#n)"><circle cx="27.99" cy="17.035" r=".842" fill="#958e9d"/></g><g filter="url(#o)"><circle cx="27.99" cy="20.004" r=".842" fill="#958e9d"/></g><g filter="url(#p)"><circle cx="27.99" cy="23.004" r=".842" fill="#ef315a"/></g><g filter="url(#q)"><path stroke="url(#r)" stroke-width=".1" d="M12.723 17.016c0-.561.454-1.016 1.015-1.016h4.524a1.016 1.016 0 0 1 0 2.031h-4.524c-.56 0-1.015-.454-1.015-1.015Z"/></g><g filter="url(#s)"><path fill="#403756" d="M12.723 17.016c0-.561.454-1.016 1.015-1.016h4.524a1.016 1.016 0 0 1 0 2.031h-4.524c-.56 0-1.015-.454-1.015-1.015"/></g><g filter="url(#t)"><path stroke="url(#u)" stroke-width=".15" d="M24.914 25.013H7.086v-2.808a2.15 2.15 0 0 1 2.15-2.15h13.528a2.15 2.15 0 0 1 2.15 2.15z"/></g><path fill="url(#v)" d="M24.914 25.013H7.086v-2.808a2.15 2.15 0 0 1 2.15-2.15h13.528a2.15 2.15 0 0 1 2.15 2.15z"/><g filter="url(#w)"><path fill="url(#x)" d="M9.04 20.064q.097-.01.196-.01h13.528q.1 0 .197.01v7.768c0 1.174-.895 2.126-2 2.126h-9.922c-1.105 0-2-.952-2-2.126z"/></g><path fill="url(#y)" d="M9.04 20.064q.097-.01.196-.01h13.528q.1 0 .197.01v7.768c0 1.174-.895 2.126-2 2.126h-9.922c-1.105 0-2-.952-2-2.126z"/><g filter="url(#z)"><path fill="url(#A)" d="M10 20.055h12v6.122a1.8 1.8 0 0 1-1.8 1.8h-8.4a1.8 1.8 0 0 1-1.8-1.8z"/><path fill="url(#B)" d="M10 20.055h12v6.122a1.8 1.8 0 0 1-1.8 1.8h-8.4a1.8 1.8 0 0 1-1.8-1.8z"/></g><path fill="#b8b1be" d="M11.82 25.495c0-.267.216-.483.482-.483h7.396a.482.482 0 1 1 0 .965h-7.396a.48.48 0 0 1-.482-.483"/><path fill="#b2acb8" d="M11.82 23.448c0-.267.216-.482.482-.482h7.396a.482.482 0 1 1 0 .964h-7.396a.48.48 0 0 1-.482-.482"/><path fill="#a19ca7" d="M11.82 21.4c0-.265.216-.481.482-.481h7.396a.482.482 0 1 1 0 .964h-7.396a.48.48 0 0 1-.482-.482"/><path fill="url(#C)" d="M11.82 21.4c0-.265.216-.481.482-.481h7.396a.482.482 0 1 1 0 .964h-7.396a.48.48 0 0 1-.482-.482"/><g filter="url(#D)"><path fill="url(#E)" d="M6.266 10.519h19.469v.469H6.266z"/></g><path fill="url(#F)" d="M7.086 25.013H5.727a.1.1 0 0 1-.1-.1v-3.994h1.459z"/><path fill="url(#G)" d="M24.914 25.013h1.359a.1.1 0 0 0 .1-.1v-3.994h-1.459z"/><defs><linearGradient id="a" x1="29.996" x2="29.125" y1="11.57" y2="20.758" gradientUnits="userSpaceOnUse"><stop stop-color="#ebe7ee"/><stop offset="1" stop-color="#ebe7ee" stop-opacity="0"/></linearGradient><linearGradient id="b" x1="26.906" x2="26.906" y1="25.227" y2="22.258" gradientUnits="userSpaceOnUse"><stop stop-color="#9e84b7"/><stop offset="1" stop-color="#c6bbd3" stop-opacity="0"/></linearGradient><linearGradient id="c" x1="2.004" x2="4.509" y1="18.117" y2="18.117" gradientUnits="userSpaceOnUse"><stop stop-color="#8b8690"/><stop offset="1" stop-color="#8b8690" stop-opacity="0"/></linearGradient><linearGradient id="d" x1="4.858" x2="4.858" y1="25.312" y2="21.824" gradientUnits="userSpaceOnUse"><stop stop-color="#947bab"/><stop offset="1" stop-color="#947bab" stop-opacity="0"/></linearGradient><linearGradient id="g" x1="23.531" x2="9" y1="8.695" y2="8.695" gradientUnits="userSpaceOnUse"><stop stop-color="#5b54a3"/><stop offset="1" stop-color="#584076"/></linearGradient><linearGradient id="h" x1="9.063" x2="9.063" y1="10.258" y2="7.883" gradientUnits="userSpaceOnUse"><stop offset=".105" stop-color="#503b6a"/><stop offset="1" stop-color="#503b6a" stop-opacity="0"/></linearGradient><linearGradient id="i" x1="10.039" x2="9.832" y1="9.68" y2="9.68" gradientUnits="userSpaceOnUse"><stop stop-color="#473361"/><stop offset=".971" stop-color="#473361" stop-opacity="0"/></linearGradient><linearGradient id="j" x1="16" x2="16" y1="2.023" y2="10.133" gradientUnits="userSpaceOnUse"><stop stop-color="#e2d9eb"/><stop offset="1" stop-color="#cec9d5"/></linearGradient><linearGradient id="k" x1="26.031" x2="6.313" y1="16.883" y2="16.883" gradientUnits="userSpaceOnUse"><stop stop-color="#5c55ab"/><stop offset=".949" stop-color="#5a407b"/></linearGradient><linearGradient id="l" x1="26.373" x2="26.27" y1="18.195" y2="18.195" gradientUnits="userSpaceOnUse"><stop offset=".132" stop-color="#625ca5"/><stop offset="1" stop-color="#625ca5" stop-opacity="0"/></linearGradient><linearGradient id="m" x1="5.627" x2="5.766" y1="18.07" y2="18.07" gradientUnits="userSpaceOnUse"><stop stop-color="#44325e"/><stop offset="1" stop-color="#44325e" stop-opacity="0"/></linearGradient><linearGradient id="r" x1="13.711" x2="14.188" y1="17.961" y2="16.523" gradientUnits="userSpaceOnUse"><stop offset=".199" stop-color="#69578a"/><stop offset="1" stop-color="#4b3580"/></linearGradient><linearGradient id="u" x1="16" x2="16" y1="20.055" y2="24.055" gradientUnits="userSpaceOnUse"><stop stop-color="#4e3682"/><stop offset="1" stop-color="#4e3682" stop-opacity="0"/></linearGradient><linearGradient id="v" x1="16" x2="16" y1="20.055" y2="25.012" gradientUnits="userSpaceOnUse"><stop stop-color="#140c25"/><stop offset="1" stop-color="#1c142e"/></linearGradient><linearGradient id="x" x1="11.344" x2="22.094" y1="27.914" y2="27.852" gradientUnits="userSpaceOnUse"><stop stop-color="#5d447c"/><stop offset="1" stop-color="#4a4668"/></linearGradient><linearGradient id="y" x1="16" x2="16" y1="19.695" y2="22.102" gradientUnits="userSpaceOnUse"><stop stop-color="#1f0c35"/><stop offset="1" stop-color="#1f0c35" stop-opacity="0"/></linearGradient><linearGradient id="A" x1="16" x2="16" y1="20.055" y2="27.977" gradientUnits="userSpaceOnUse"><stop stop-color="#cfc8d7"/><stop offset="1" stop-color="#ece3f6"/></linearGradient><linearGradient id="B" x1="16" x2="16" y1="19.884" y2="21.78" gradientUnits="userSpaceOnUse"><stop offset=".163" stop-color="#776987"/><stop offset="1" stop-color="#a198ad" stop-opacity="0"/></linearGradient><linearGradient id="C" x1="16" x2="16" y1="20.919" y2="21.586" gradientUnits="userSpaceOnUse"><stop stop-color="#8a8491"/><stop offset="1" stop-color="#8a8491" stop-opacity="0"/></linearGradient><linearGradient id="E" x1="9.478" x2="23.653" y1="11.175" y2="11.175" gradientUnits="userSpaceOnUse"><stop stop-color="#5e457d"/><stop offset="1" stop-color="#615aae"/></linearGradient><linearGradient id="F" x1="5.969" x2="5.969" y1="25.012" y2="23.602" gradientUnits="userSpaceOnUse"><stop offset=".077" stop-color="#4a2d6e"/><stop offset="1" stop-color="#4a2d6e" stop-opacity="0"/></linearGradient><linearGradient id="G" x1="26.031" x2="26.031" y1="25.012" y2="23.602" gradientUnits="userSpaceOnUse"><stop offset=".077" stop-color="#4b3a96"/><stop offset="1" stop-color="#4b3a96" stop-opacity="0"/></linearGradient><filter id="e" width="12.623" height="15.041" x="17.364" y="9.895" color-interpolation-filters="sRGB" filterUnits="userSpaceOnUse"><feFlood flood-opacity="0" result="BackgroundImageFix"/><feBlend in="SourceGraphic" in2="BackgroundImageFix" result="shape"/><feGaussianBlur result="effect1_foregroundBlur_18_19569" stdDeviation=".4"/></filter><filter id="f" width="12.623" height="15.041" x="1.923" y="9.895" color-interpolation-filters="sRGB" filterUnits="userSpaceOnUse"><feFlood flood-opacity="0" result="BackgroundImageFix"/><feBlend in="SourceGraphic" in2="BackgroundImageFix" result="shape"/><feGaussianBlur result="effect1_foregroundBlur_18_19569" stdDeviation=".4"/></filter><filter id="n" width="2.084" height="2.084" x="26.848" y="16.093" color-interpolation-filters="sRGB" filterUnits="userSpaceOnUse"><feFlood flood-opacity="0" result="BackgroundImageFix"/><feColorMatrix in="SourceAlpha" result="hardAlpha" values="0 0 0 0 0 0 0 0 0 0 0 0 0 0 0 0 0 0 127 0"/><feOffset dx="-.1" dy=".1"/><feGaussianBlur stdDeviation=".1"/><feComposite in2="hardAlpha" operator="out"/><feColorMatrix values="0 0 0 0 0.54902 0 0 0 0 0.486275 0 0 0 0 0.615686 0 0 0 1 0"/><feBlend in2="BackgroundImageFix" result="effect1_dropShadow_18_19569"/><feBlend in="SourceGraphic" in2="effect1_dropShadow_18_19569" result="shape"/><feColorMatrix in="SourceAlpha" result="hardAlpha" values="0 0 0 0 0 0 0 0 0 0 0 0 0 0 0 0 0 0 127 0"/><feOffset dx="-.03" dy=".03"/><feGaussianBlur stdDeviation=".025"/><feComposite in2="hardAlpha" k2="-1" k3="1" operator="arithmetic"/><feColorMatrix values="0 0 0 0 0.733333 0 0 0 0 0.721569 0 0 0 0 0.741176 0 0 0 1 0"/><feBlend in2="shape" result="effect2_innerShadow_18_19569"/><feColorMatrix in="SourceAlpha" result="hardAlpha" values="0 0 0 0 0 0 0 0 0 0 0 0 0 0 0 0 0 0 127 0"/><feOffset dx=".05" dy="-.05"/><feGaussianBlur stdDeviation=".025"/><feComposite in2="hardAlpha" k2="-1" k3="1" operator="arithmetic"/><feColorMatrix values="0 0 0 0 0.541176 0 0 0 0 0.466667 0 0 0 0 0.607843 0 0 0 1 0"/><feBlend in2="effect2_innerShadow_18_19569" result="effect3_innerShadow_18_19569"/></filter><filter id="o" width="2.084" height="2.084" x="26.848" y="19.062" color-interpolation-filters="sRGB" filterUnits="userSpaceOnUse"><feFlood flood-opacity="0" result="BackgroundImageFix"/><feColorMatrix in="SourceAlpha" result="hardAlpha" values="0 0 0 0 0 0 0 0 0 0 0 0 0 0 0 0 0 0 127 0"/><feOffset dx="-.1" dy=".1"/><feGaussianBlur stdDeviation=".1"/><feComposite in2="hardAlpha" operator="out"/><feColorMatrix values="0 0 0 0 0.588235 0 0 0 0 0.454902 0 0 0 0 0.607843 0 0 0 1 0"/><feBlend in2="BackgroundImageFix" result="effect1_dropShadow_18_19569"/><feBlend in="SourceGraphic" in2="effect1_dropShadow_18_19569" result="shape"/><feColorMatrix in="SourceAlpha" result="hardAlpha" values="0 0 0 0 0 0 0 0 0 0 0 0 0 0 0 0 0 0 127 0"/><feOffset dx="-.03" dy=".03"/><feGaussianBlur stdDeviation=".025"/><feComposite in2="hardAlpha" k2="-1" k3="1" operator="arithmetic"/><feColorMatrix values="0 0 0 0 0.733333 0 0 0 0 0.721569 0 0 0 0 0.741176 0 0 0 1 0"/><feBlend in2="shape" result="effect2_innerShadow_18_19569"/><feColorMatrix in="SourceAlpha" result="hardAlpha" values="0 0 0 0 0 0 0 0 0 0 0 0 0 0 0 0 0 0 127 0"/><feOffset dx=".05" dy="-.05"/><feGaussianBlur stdDeviation=".025"/><feComposite in2="hardAlpha" k2="-1" k3="1" operator="arithmetic"/><feColorMatrix values="0 0 0 0 0.47451 0 0 0 0 0.427451 0 0 0 0 0.52549 0 0 0 1 0"/><feBlend in2="effect2_innerShadow_18_19569" result="effect3_innerShadow_18_19569"/></filter><filter id="p" width="2.084" height="2.084" x="26.848" y="22.062" color-interpolation-filters="sRGB" filterUnits="userSpaceOnUse"><feFlood flood-opacity="0" result="BackgroundImageFix"/><feColorMatrix in="SourceAlpha" result="hardAlpha" values="0 0 0 0 0 0 0 0 0 0 0 0 0 0 0 0 0 0 127 0"/><feOffset dx="-.1" dy=".1"/><feGaussianBlur stdDeviation=".1"/><feComposite in2="hardAlpha" operator="out"/><feColorMatrix values="0 0 0 0 0.588235 0 0 0 0 0.454902 0 0 0 0 0.607843 0 0 0 1 0"/><feBlend in2="BackgroundImageFix" result="effect1_dropShadow_18_19569"/><feBlend in="SourceGraphic" in2="effect1_dropShadow_18_19569" result="shape"/><feColorMatrix in="SourceAlpha" result="hardAlpha" values="0 0 0 0 0 0 0 0 0 0 0 0 0 0 0 0 0 0 127 0"/><feOffset dx="-.03" dy=".03"/><feGaussianBlur stdDeviation=".025"/><feComposite in2="hardAlpha" k2="-1" k3="1" operator="arithmetic"/><feColorMatrix values="0 0 0 0 1 0 0 0 0 0.431373 0 0 0 0 0.517647 0 0 0 1 0"/><feBlend in2="shape" result="effect2_innerShadow_18_19569"/><feColorMatrix in="SourceAlpha" result="hardAlpha" values="0 0 0 0 0 0 0 0 0 0 0 0 0 0 0 0 0 0 127 0"/><feOffset dx=".05" dy="-.05"/><feGaussianBlur stdDeviation=".025"/><feComposite in2="hardAlpha" k2="-1" k3="1" operator="arithmetic"/><feColorMatrix values="0 0 0 0 0.709804 0 0 0 0 0.247059 0 0 0 0 0.4 0 0 0 1 0"/><feBlend in2="effect2_innerShadow_18_19569" result="effect3_innerShadow_18_19569"/></filter><filter id="q" width="6.755" height="2.231" x="12.623" y="15.9" color-interpolation-filters="sRGB" filterUnits="userSpaceOnUse"><feFlood flood-opacity="0" result="BackgroundImageFix"/><feBlend in="SourceGraphic" in2="BackgroundImageFix" result="shape"/><feGaussianBlur result="effect1_foregroundBlur_18_19569" stdDeviation=".025"/></filter><filter id="s" width="6.655" height="2.181" x="12.623" y="16" color-interpolation-filters="sRGB" filterUnits="userSpaceOnUse"><feFlood flood-opacity="0" result="BackgroundImageFix"/><feBlend in="SourceGraphic" in2="BackgroundImageFix" result="shape"/><feColorMatrix in="SourceAlpha" result="hardAlpha" values="0 0 0 0 0 0 0 0 0 0 0 0 0 0 0 0 0 0 127 0"/><feOffset/><feGaussianBlur stdDeviation=".075"/><feComposite in2="hardAlpha" k2="-1" k3="1" operator="arithmetic"/><feColorMatrix values="0 0 0 0 0.145098 0 0 0 0 0.105882 0 0 0 0 0.219608 0 0 0 1 0"/><feBlend in2="shape" result="effect1_innerShadow_18_19569"/><feColorMatrix in="SourceAlpha" result="hardAlpha" values="0 0 0 0 0 0 0 0 0 0 0 0 0 0 0 0 0 0 127 0"/><feOffset dx="-.1" dy=".15"/><feGaussianBlur stdDeviation=".25"/><feComposite in2="hardAlpha" k2="-1" k3="1" operator="arithmetic"/><feColorMatrix values="0 0 0 0 0.156863 0 0 0 0 0.121569 0 0 0 0 0.223529 0 0 0 1 0"/><feBlend in2="effect1_innerShadow_18_19569" result="effect2_innerShadow_18_19569"/></filter><filter id="t" width="18.078" height="5.208" x="6.961" y="19.93" color-interpolation-filters="sRGB" filterUnits="userSpaceOnUse"><feFlood flood-opacity="0" result="BackgroundImageFix"/><feBlend in="SourceGraphic" in2="BackgroundImageFix" result="shape"/><feGaussianBlur result="effect1_foregroundBlur_18_19569" stdDeviation=".025"/></filter><filter id="w" width="14.022" height="9.953" x="8.989" y="20.005" color-interpolation-filters="sRGB" filterUnits="userSpaceOnUse"><feFlood flood-opacity="0" result="BackgroundImageFix"/><feBlend in="SourceGraphic" in2="BackgroundImageFix" result="shape"/><feColorMatrix in="SourceAlpha" result="hardAlpha" values="0 0 0 0 0 0 0 0 0 0 0 0 0 0 0 0 0 0 127 0"/><feOffset dx="-.05" dy="-.05"/><feGaussianBlur stdDeviation=".025"/><feComposite in2="hardAlpha" k2="-1" k3="1" operator="arithmetic"/><feColorMatrix values="0 0 0 0 0.309804 0 0 0 0 0.298039 0 0 0 0 0.411765 0 0 0 1 0"/><feBlend in2="shape" result="effect1_innerShadow_18_19569"/><feColorMatrix in="SourceAlpha" result="hardAlpha" values="0 0 0 0 0 0 0 0 0 0 0 0 0 0 0 0 0 0 127 0"/><feOffset dx=".05" dy="-.05"/><feGaussianBlur stdDeviation=".025"/><feComposite in2="hardAlpha" k2="-1" k3="1" operator="arithmetic"/><feColorMatrix values="0 0 0 0 0.298039 0 0 0 0 0.219608 0 0 0 0 0.411765 0 0 0 1 0"/><feBlend in2="effect1_innerShadow_18_19569" result="effect2_innerShadow_18_19569"/></filter><filter id="z" width="12.4" height="8.322" x="9.8" y="19.955" color-interpolation-filters="sRGB" filterUnits="userSpaceOnUse"><feFlood flood-opacity="0" result="BackgroundImageFix"/><feColorMatrix in="SourceAlpha" result="hardAlpha" values="0 0 0 0 0 0 0 0 0 0 0 0 0 0 0 0 0 0 127 0"/><feOffset dy=".1"/><feGaussianBlur stdDeviation=".1"/><feComposite in2="hardAlpha" operator="out"/><feColorMatrix values="0 0 0 0 0.207843 0 0 0 0 0.137255 0 0 0 0 0.317647 0 0 0 1 0"/><feBlend in2="BackgroundImageFix" result="effect1_dropShadow_18_19569"/><feBlend in="SourceGraphic" in2="effect1_dropShadow_18_19569" result="shape"/></filter><filter id="D" width="20.469" height="1.469" x="5.766" y="10.019" color-interpolation-filters="sRGB" filterUnits="userSpaceOnUse"><feFlood flood-opacity="0" result="BackgroundImageFix"/><feBlend in="SourceGraphic" in2="BackgroundImageFix" result="shape"/><feGaussianBlur result="effect1_foregroundBlur_18_19569" stdDeviation=".25"/></filter></defs></svg>