<svg xmlns="http://www.w3.org/2000/svg" width="32" height="32" fill="none" viewBox="0 0 32 32"><g filter="url(#a)"><path fill="url(#b)" d="M14.975 10h9.66c1.36 0 2.58.81 3.12 2.04l.005.014c.022.049.053.12.065.156l1.64 4.37c.168.456.297.93.378 1.406l.012.014c.09.49.14 1 .14 1.51V24h-28l.13-4c.37-1.16 1.46-2 2.75-2h3.1l4.37-6.51c.59-.88 1.57-1.45 2.63-1.49"/></g><path fill="url(#c)" d="M14.975 10h9.66c1.36 0 2.58.81 3.12 2.04l.005.014c.022.049.053.12.065.156l1.64 4.37c.168.456.297.93.378 1.406l.012.014c.09.49.14 1 .14 1.51V24h-28l.13-4c.37-1.16 1.46-2 2.75-2h3.1l4.37-6.51c.59-.88 1.57-1.45 2.63-1.49"/><g filter="url(#d)"><path fill="#94154b" fill-rule="evenodd" d="M10.022 17.846c.005-.293.07-.95.492-1.298.272-.224.704-.274 1.058-.246.295.024.473.286.473.573v1.94c0 .288-.178.55-.473.574-.354.028-.786-.022-1.058-.246-.421-.348-.487-1.005-.492-1.297" clip-rule="evenodd"/></g><path fill="url(#e)" d="m11.995 12-4.03 6h7.06c.53 0 .96-.43.96-.96v-4.08a.96.96 0 0 0-.96-.96z"/><path fill="url(#f)" d="m11.995 12-4.03 6h7.06c.53 0 .96-.43.96-.96v-4.08a.96.96 0 0 0-.96-.96z"/><path fill="url(#g)" d="m11.995 12-4.03 6h7.06c.53 0 .96-.43.96-.96v-4.08a.96.96 0 0 0-.96-.96z"/><path fill="url(#h)" d="m11.995 12-4.03 6h7.06c.53 0 .96-.43.96-.96v-4.08a.96.96 0 0 0-.96-.96z"/><path fill="#9989aa" d="M28.605 26H3.385c-.77 0-1.39-.62-1.39-1.39V24h28v.61c0 .77-.62 1.39-1.39 1.39"/><path fill="url(#i)" d="M28.605 26H3.385c-.77 0-1.39-.62-1.39-1.39V24h28v.61c0 .77-.62 1.39-1.39 1.39"/><path fill="url(#j)" d="M28.605 26H3.385c-.77 0-1.39-.62-1.39-1.39V24h28v.61c0 .77-.62 1.39-1.39 1.39"/><path fill="url(#k)" d="M28.605 26H3.385c-.77 0-1.39-.62-1.39-1.39V24h28v.61c0 .77-.62 1.39-1.39 1.39"/><g filter="url(#l)"><path fill="url(#m)" d="M23.005 18h-4.04a.96.96 0 0 1-.96-.96v-4.08c0-.53.43-.96.96-.96h4.04c.53 0 .96.43.96.96v4.08c0 .53-.43.96-.96.96"/></g><path fill="url(#n)" d="m29.465 16.58-1.64-4.37c-.02-.06-.09-.21-.09-.21h-.72c-.57 0-1.04.47-1.04 1.04v4c0 .53.43.96.96.96h2.91c-.08-.48-.21-.96-.38-1.42"/><path fill="url(#o)" d="m29.465 16.58-1.64-4.37c-.02-.06-.09-.21-.09-.21h-.72c-.57 0-1.04.47-1.04 1.04v4c0 .53.43.96.96.96h2.91c-.08-.48-.21-.96-.38-1.42"/><path fill="url(#p)" d="m29.465 16.58-1.64-4.37c-.02-.06-.09-.21-.09-.21h-.72c-.57 0-1.04.47-1.04 1.04v4c0 .53.43.96.96.96h2.91c-.08-.48-.21-.96-.38-1.42"/><path fill="url(#q)" fill-rule="evenodd" d="M12.316 26q.045-.294.046-.602A3.867 3.867 0 1 0 4.674 26z" clip-rule="evenodd"/><path fill="url(#r)" fill-rule="evenodd" d="M27.316 26q.046-.294.046-.602a3.867 3.867 0 1 0-7.688.602z" clip-rule="evenodd"/><path fill="#f7da4c" d="M3.985 22v-1c0-.55-.45-1-1-1h-.85c-.1.29-.14.6-.14 1.27V23h.99c.55 0 1-.45 1-1"/><g filter="url(#s)"><path fill="url(#t)" d="M23.495 29a3.5 3.5 0 1 0 0-7 3.5 3.5 0 0 0 0 7"/><path fill="url(#u)" d="M23.495 29a3.5 3.5 0 1 0 0-7 3.5 3.5 0 0 0 0 7"/></g><g filter="url(#v)"><path fill="#d9c3f0" d="M23.495 27a1.5 1.5 0 1 0 0-3 1.5 1.5 0 0 0 0 3"/></g><path fill="url(#w)" d="M29.985 20h-.5c-.85 0-1.54.71-1.5 1.57.04.81.74 1.43 1.55 1.43h.45z"/><g filter="url(#x)"><circle cx="23.757" cy="25.193" r="2.469" stroke="url(#y)" stroke-width=".85"/></g><g filter="url(#z)"><path fill="url(#A)" d="M8.515 29a3.5 3.5 0 1 0 0-7 3.5 3.5 0 0 0 0 7"/><path fill="url(#B)" d="M8.515 29a3.5 3.5 0 1 0 0-7 3.5 3.5 0 0 0 0 7"/></g><g filter="url(#C)"><path fill="#d9c3f0" d="M8.495 27a1.5 1.5 0 1 0 0-3 1.5 1.5 0 0 0 0 3"/></g><g filter="url(#D)"><circle cx="8.694" cy="25.193" r="2.469" stroke="url(#E)" stroke-width=".85"/></g><path fill="url(#F)" fill-rule="evenodd" d="M10.152 17.494c.005-.292.07-.95.492-1.297.271-.225.703-.275 1.057-.247.295.024.474.287.474.573v1.941c0 .287-.179.55-.474.573-.354.028-.786-.021-1.058-.246-.421-.348-.487-1.005-.491-1.297" clip-rule="evenodd"/><path fill="url(#G)" fill-rule="evenodd" d="M10.152 17.494c.005-.292.07-.95.492-1.297.271-.225.703-.275 1.057-.247.295.024.474.287.474.573v1.941c0 .287-.179.55-.474.573-.354.028-.786-.021-1.058-.246-.421-.348-.487-1.005-.491-1.297" clip-rule="evenodd"/><g filter="url(#H)"><path fill="url(#I)" d="M11.887 16.247v2.368c-.719-.563-.872-1.841-.851-2.313.293-.106.69-.08.851-.055"/></g><defs><linearGradient id="b" x1="2.582" x2="17.27" y1="18.505" y2="18.505" gradientUnits="userSpaceOnUse"><stop stop-color="#df378a"/><stop offset="1" stop-color="#ed334e"/></linearGradient><linearGradient id="e" x1="14.707" x2="9.145" y1="13.443" y2="18" gradientUnits="userSpaceOnUse"><stop stop-color="#3398f0"/><stop offset="1" stop-color="#57e8ff"/></linearGradient><linearGradient id="f" x1="15.985" x2="14.145" y1="17.193" y2="17.193" gradientUnits="userSpaceOnUse"><stop stop-color="#2372d7"/><stop offset="1" stop-color="#2372d7" stop-opacity="0"/></linearGradient><linearGradient id="g" x1="14.145" x2="14.145" y1="11.443" y2="17.255" gradientUnits="userSpaceOnUse"><stop offset=".226" stop-color="#2372d7"/><stop offset="1" stop-color="#2372d7" stop-opacity="0"/></linearGradient><linearGradient id="h" x1="7.965" x2="11.975" y1="18" y2="18" gradientUnits="userSpaceOnUse"><stop stop-color="#5eeeff"/><stop offset=".653" stop-color="#40acf4"/><stop offset="1" stop-color="#40acf4" stop-opacity="0"/></linearGradient><linearGradient id="i" x1="1.995" x2="2.885" y1="25" y2="25" gradientUnits="userSpaceOnUse"><stop stop-color="#847f89"/><stop offset="1" stop-color="#847f89" stop-opacity="0"/></linearGradient><linearGradient id="j" x1="29.995" x2="28.43" y1="25" y2="25" gradientUnits="userSpaceOnUse"><stop stop-color="#847f89"/><stop offset="1" stop-color="#847f89" stop-opacity="0"/></linearGradient><linearGradient id="k" x1="15.995" x2="15.995" y1="26" y2="25.162" gradientUnits="userSpaceOnUse"><stop stop-color="#734995"/><stop offset="1" stop-color="#734995" stop-opacity="0"/></linearGradient><linearGradient id="m" x1="21.957" x2="18.005" y1="13.943" y2="18.568" gradientUnits="userSpaceOnUse"><stop stop-color="#40a4ff"/><stop offset="1" stop-color="#5bf6ff"/></linearGradient><linearGradient id="n" x1="28.707" x2="25.645" y1="15" y2="18" gradientUnits="userSpaceOnUse"><stop stop-color="#3da7ff"/><stop offset="1" stop-color="#4cf0f8"/></linearGradient><linearGradient id="o" x1="26.41" x2="27.098" y1="12.552" y2="13.318" gradientUnits="userSpaceOnUse"><stop stop-color="#2588da"/><stop offset="1" stop-color="#2588da" stop-opacity="0"/></linearGradient><linearGradient id="p" x1="30.239" x2="29.082" y1="18" y2="16.912" gradientUnits="userSpaceOnUse"><stop stop-color="#2588da"/><stop offset="1" stop-color="#2588da" stop-opacity="0"/></linearGradient><linearGradient id="q" x1="8.495" x2="8.495" y1="21.531" y2="25.871" gradientUnits="userSpaceOnUse"><stop stop-color="#64023b"/><stop offset="1" stop-color="#7e0b55"/></linearGradient><linearGradient id="r" x1="23.495" x2="23.495" y1="21.531" y2="25.871" gradientUnits="userSpaceOnUse"><stop stop-color="#64023b"/><stop offset="1" stop-color="#7e0b55"/></linearGradient><linearGradient id="t" x1="21.881" x2="27.138" y1="24.62" y2="24.62" gradientUnits="userSpaceOnUse"><stop offset=".239" stop-color="#34214f"/><stop offset="1" stop-color="#241337"/></linearGradient><linearGradient id="y" x1="25.102" x2="22.103" y1="23.234" y2="27.376" gradientUnits="userSpaceOnUse"><stop offset=".083" stop-color="#615b6b"/><stop offset=".391" stop-color="#615b6b" stop-opacity="0"/><stop offset=".692" stop-color="#615b6b" stop-opacity="0"/><stop offset=".935" stop-color="#615b6b"/></linearGradient><linearGradient id="A" x1="6.901" x2="12.158" y1="24.62" y2="24.62" gradientUnits="userSpaceOnUse"><stop offset=".239" stop-color="#34214f"/><stop offset="1" stop-color="#241337"/></linearGradient><linearGradient id="E" x1="10.04" x2="7.04" y1="23.234" y2="27.376" gradientUnits="userSpaceOnUse"><stop offset=".083" stop-color="#615b6b"/><stop offset=".391" stop-color="#615b6b" stop-opacity="0"/><stop offset=".692" stop-color="#615b6b" stop-opacity="0"/><stop offset=".935" stop-color="#615b6b"/></linearGradient><linearGradient id="G" x1="11.858" x2="12.175" y1="17.738" y2="17.738" gradientUnits="userSpaceOnUse"><stop stop-color="#281f4a" stop-opacity="0"/><stop offset="1" stop-color="#281f4a"/></linearGradient><filter id="a" width="28.5" height="14" x="1.495" y="10" color-interpolation-filters="sRGB" filterUnits="userSpaceOnUse"><feFlood flood-opacity="0" result="BackgroundImageFix"/><feBlend in="SourceGraphic" in2="BackgroundImageFix" result="shape"/><feColorMatrix in="SourceAlpha" result="hardAlpha" values="0 0 0 0 0 0 0 0 0 0 0 0 0 0 0 0 0 0 127 0"/><feOffset dx="-.5"/><feGaussianBlur stdDeviation=".25"/><feComposite in2="hardAlpha" k2="-1" k3="1" operator="arithmetic"/><feColorMatrix values="0 0 0 0 0.745098 0 0 0 0 0.137255 0 0 0 0 0.192157 0 0 0 1 0"/><feBlend in2="shape" result="effect1_innerShadow_18_10534"/></filter><filter id="d" width="2.823" height="3.901" x="9.622" y="15.895" color-interpolation-filters="sRGB" filterUnits="userSpaceOnUse"><feFlood flood-opacity="0" result="BackgroundImageFix"/><feBlend in="SourceGraphic" in2="BackgroundImageFix" result="shape"/><feGaussianBlur result="effect1_foregroundBlur_18_10534" stdDeviation=".2"/></filter><filter id="l" width="6.71" height="7" x="17.255" y="12" color-interpolation-filters="sRGB" filterUnits="userSpaceOnUse"><feFlood flood-opacity="0" result="BackgroundImageFix"/><feBlend in="SourceGraphic" in2="BackgroundImageFix" result="shape"/><feColorMatrix in="SourceAlpha" result="hardAlpha" values="0 0 0 0 0 0 0 0 0 0 0 0 0 0 0 0 0 0 127 0"/><feOffset dx="-.75" dy="1"/><feGaussianBlur stdDeviation=".5"/><feComposite in2="hardAlpha" k2="-1" k3="1" operator="arithmetic"/><feColorMatrix values="0 0 0 0 0.168627 0 0 0 0 0.45098 0 0 0 0 0.964706 0 0 0 1 0"/><feBlend in2="shape" result="effect1_innerShadow_18_10534"/></filter><filter id="s" width="7" height="7.15" x="19.995" y="22" color-interpolation-filters="sRGB" filterUnits="userSpaceOnUse"><feFlood flood-opacity="0" result="BackgroundImageFix"/><feBlend in="SourceGraphic" in2="BackgroundImageFix" result="shape"/><feColorMatrix in="SourceAlpha" result="hardAlpha" values="0 0 0 0 0 0 0 0 0 0 0 0 0 0 0 0 0 0 127 0"/><feOffset/><feGaussianBlur stdDeviation=".5"/><feComposite in2="hardAlpha" k2="-1" k3="1" operator="arithmetic"/><feColorMatrix values="0 0 0 0 0.145098 0 0 0 0 0.0823529 0 0 0 0 0.215686 0 0 0 1 0"/><feBlend in2="shape" result="effect1_innerShadow_18_10534"/><feColorMatrix in="SourceAlpha" result="hardAlpha" values="0 0 0 0 0 0 0 0 0 0 0 0 0 0 0 0 0 0 127 0"/><feOffset dy=".15"/><feGaussianBlur stdDeviation=".125"/><feComposite in2="hardAlpha" k2="-1" k3="1" operator="arithmetic"/><feColorMatrix values="0 0 0 0 0.207843 0 0 0 0 0.0313726 0 0 0 0 0.235294 0 0 0 1 0"/><feBlend in2="effect1_innerShadow_18_10534" result="effect2_innerShadow_18_10534"/></filter><filter id="v" width="3.1" height="3.1" x="21.945" y="23.95" color-interpolation-filters="sRGB" filterUnits="userSpaceOnUse"><feFlood flood-opacity="0" result="BackgroundImageFix"/><feBlend in="SourceGraphic" in2="BackgroundImageFix" result="shape"/><feColorMatrix in="SourceAlpha" result="hardAlpha" values="0 0 0 0 0 0 0 0 0 0 0 0 0 0 0 0 0 0 127 0"/><feOffset dx=".05" dy="-.05"/><feGaussianBlur stdDeviation=".05"/><feComposite in2="hardAlpha" k2="-1" k3="1" operator="arithmetic"/><feColorMatrix values="0 0 0 0 0.478431 0 0 0 0 0.364706 0 0 0 0 0.584314 0 0 0 1 0"/><feBlend in2="shape" result="effect1_innerShadow_18_10534"/><feColorMatrix in="SourceAlpha" result="hardAlpha" values="0 0 0 0 0 0 0 0 0 0 0 0 0 0 0 0 0 0 127 0"/><feOffset dx="-.05" dy=".05"/><feGaussianBlur stdDeviation=".05"/><feComposite in2="hardAlpha" k2="-1" k3="1" operator="arithmetic"/><feColorMatrix values="0 0 0 0 0.807843 0 0 0 0 0.764706 0 0 0 0 0.858824 0 0 0 1 0"/><feBlend in2="effect1_innerShadow_18_10534" result="effect2_innerShadow_18_10534"/></filter><filter id="x" width="7.287" height="7.287" x="20.113" y="21.549" color-interpolation-filters="sRGB" filterUnits="userSpaceOnUse"><feFlood flood-opacity="0" result="BackgroundImageFix"/><feBlend in="SourceGraphic" in2="BackgroundImageFix" result="shape"/><feGaussianBlur result="effect1_foregroundBlur_18_10534" stdDeviation=".375"/></filter><filter id="z" width="7" height="7.15" x="5.015" y="22" color-interpolation-filters="sRGB" filterUnits="userSpaceOnUse"><feFlood flood-opacity="0" result="BackgroundImageFix"/><feBlend in="SourceGraphic" in2="BackgroundImageFix" result="shape"/><feColorMatrix in="SourceAlpha" result="hardAlpha" values="0 0 0 0 0 0 0 0 0 0 0 0 0 0 0 0 0 0 127 0"/><feOffset/><feGaussianBlur stdDeviation=".5"/><feComposite in2="hardAlpha" k2="-1" k3="1" operator="arithmetic"/><feColorMatrix values="0 0 0 0 0.145098 0 0 0 0 0.0823529 0 0 0 0 0.215686 0 0 0 1 0"/><feBlend in2="shape" result="effect1_innerShadow_18_10534"/><feColorMatrix in="SourceAlpha" result="hardAlpha" values="0 0 0 0 0 0 0 0 0 0 0 0 0 0 0 0 0 0 127 0"/><feOffset dy=".15"/><feGaussianBlur stdDeviation=".125"/><feComposite in2="hardAlpha" k2="-1" k3="1" operator="arithmetic"/><feColorMatrix values="0 0 0 0 0.207843 0 0 0 0 0.0313726 0 0 0 0 0.235294 0 0 0 1 0"/><feBlend in2="effect1_innerShadow_18_10534" result="effect2_innerShadow_18_10534"/></filter><filter id="C" width="3.1" height="3.1" x="6.945" y="23.95" color-interpolation-filters="sRGB" filterUnits="userSpaceOnUse"><feFlood flood-opacity="0" result="BackgroundImageFix"/><feBlend in="SourceGraphic" in2="BackgroundImageFix" result="shape"/><feColorMatrix in="SourceAlpha" result="hardAlpha" values="0 0 0 0 0 0 0 0 0 0 0 0 0 0 0 0 0 0 127 0"/><feOffset dx=".05" dy="-.05"/><feGaussianBlur stdDeviation=".05"/><feComposite in2="hardAlpha" k2="-1" k3="1" operator="arithmetic"/><feColorMatrix values="0 0 0 0 0.478431 0 0 0 0 0.364706 0 0 0 0 0.584314 0 0 0 1 0"/><feBlend in2="shape" result="effect1_innerShadow_18_10534"/><feColorMatrix in="SourceAlpha" result="hardAlpha" values="0 0 0 0 0 0 0 0 0 0 0 0 0 0 0 0 0 0 127 0"/><feOffset dx="-.05" dy=".05"/><feGaussianBlur stdDeviation=".05"/><feComposite in2="hardAlpha" k2="-1" k3="1" operator="arithmetic"/><feColorMatrix values="0 0 0 0 0.807843 0 0 0 0 0.764706 0 0 0 0 0.858824 0 0 0 1 0"/><feBlend in2="effect1_innerShadow_18_10534" result="effect2_innerShadow_18_10534"/></filter><filter id="D" width="7.287" height="7.287" x="5.051" y="21.549" color-interpolation-filters="sRGB" filterUnits="userSpaceOnUse"><feFlood flood-opacity="0" result="BackgroundImageFix"/><feBlend in="SourceGraphic" in2="BackgroundImageFix" result="shape"/><feGaussianBlur result="effect1_foregroundBlur_18_10534" stdDeviation=".375"/></filter><filter id="H" width="1.253" height="2.79" x="10.834" y="16.025" color-interpolation-filters="sRGB" filterUnits="userSpaceOnUse"><feFlood flood-opacity="0" result="BackgroundImageFix"/><feBlend in="SourceGraphic" in2="BackgroundImageFix" result="shape"/><feGaussianBlur result="effect1_foregroundBlur_18_10534" stdDeviation=".1"/></filter><radialGradient id="c" cx="0" cy="0" r="1" gradientTransform="rotate(136.332 11.517 10.884)scale(2.18138 3.8357)" gradientUnits="userSpaceOnUse"><stop stop-color="#ff4d5a"/><stop offset="1" stop-color="#ff4d5a" stop-opacity="0"/></radialGradient><radialGradient id="u" cx="0" cy="0" r="1" gradientTransform="rotate(-65.537 31.312 -5.657)scale(1.9097 1.99461)" gradientUnits="userSpaceOnUse"><stop offset=".523" stop-color="#2d114d"/><stop offset="1" stop-color="#2b1249" stop-opacity="0"/></radialGradient><radialGradient id="w" cx="0" cy="0" r="1" gradientTransform="rotate(239.468 21.467 2.771)scale(2.61197)" gradientUnits="userSpaceOnUse"><stop offset=".418" stop-color="#d32374"/><stop offset="1" stop-color="#b60160"/></radialGradient><radialGradient id="B" cx="0" cy="0" r="1" gradientTransform="rotate(-65.537 23.822 5.979)scale(1.9097 1.99461)" gradientUnits="userSpaceOnUse"><stop offset=".523" stop-color="#2d114d"/><stop offset="1" stop-color="#2b1249" stop-opacity="0"/></radialGradient><radialGradient id="F" cx="0" cy="0" r="1" gradientTransform="matrix(1.25 -1.30468 3.4823 3.33637 10.98 18.427)" gradientUnits="userSpaceOnUse"><stop stop-color="#3a2557"/><stop offset="1" stop-color="#281f4a"/></radialGradient><radialGradient id="I" cx="0" cy="0" r="1" gradientTransform="matrix(0 2.24219 -.82422 0 11.887 16.372)" gradientUnits="userSpaceOnUse"><stop stop-color="#5e5866"/><stop offset="1" stop-color="#5e5866" stop-opacity="0"/></radialGradient></defs></svg>