<svg xmlns="http://www.w3.org/2000/svg" width="32" height="32" fill="none" viewBox="0 0 32 32"><path fill="url(#a)" d="M17.032 24.82h-3l.95 4.43c.03.15.16.25.31.25h2.36c.2 0 .35-.19.31-.38z"/><path fill="url(#b)" d="M17.032 24.82h-3l.95 4.43c.03.15.16.25.31.25h2.36c.2 0 .35-.19.31-.38z"/><path fill="url(#c)" d="M17.032 24.82h-3l.95 4.43c.03.15.16.25.31.25h2.36c.2 0 .35-.19.31-.38z"/><path fill="url(#d)" d="M17.032 24.82h-3l.95 4.43c.03.15.16.25.31.25h2.36c.2 0 .35-.19.31-.38z"/><path fill="url(#e)" d="M20.952 24.82h3l-.94 4.42c-.03.15-.16.25-.31.25h-2.36a.32.32 0 0 1-.31-.38z"/><path fill="url(#f)" d="M20.952 24.82h3l-.94 4.42c-.03.15-.16.25-.31.25h-2.36a.32.32 0 0 1-.31-.38z"/><path fill="url(#g)" d="M20.952 24.82h3l-.94 4.42c-.03.15-.16.25-.31.25h-2.36a.32.32 0 0 1-.31-.38z"/><path fill="url(#h)" d="M20.952 24.82h3l-.94 4.42c-.03.15-.16.25-.31.25h-2.36a.32.32 0 0 1-.31-.38z"/><path fill="#dfa27a" d="M20.042 9.44c-1.58 0-3.06.43-4.32 1.17l-8.04 4.46c-1.04.59-1.68 1.7-1.68 2.89v.95c0 .56-.32 1.08-.82 1.33l-2.68 1.3c-.34.17-.49.54-.49.91 0 1.5 1.11 4.04 4.85 4.04h2.85l-1.16 2.54c-.09.22.07.46.31.46h2.6c.13 0 .25-.08.31-.2l1.27-2.8h11.68c.15 0 .28.12.28.28v2.39c0 .18.15.33.33.33h2.33c.18 0 .33-.15.33-.33v-4.5l.62-6.66c0-4.73-3.84-8.56-8.57-8.56"/><path fill="url(#i)" d="M20.042 9.44c-1.58 0-3.06.43-4.32 1.17l-8.04 4.46c-1.04.59-1.68 1.7-1.68 2.89v.95c0 .56-.32 1.08-.82 1.33l-2.68 1.3c-.34.17-.49.54-.49.91 0 1.5 1.11 4.04 4.85 4.04h2.85l-1.16 2.54c-.09.22.07.46.31.46h2.6c.13 0 .25-.08.31-.2l1.27-2.8h11.68c.15 0 .28.12.28.28v2.39c0 .18.15.33.33.33h2.33c.18 0 .33-.15.33-.33v-4.5l.62-6.66c0-4.73-3.84-8.56-8.57-8.56"/><path fill="url(#j)" d="M20.042 9.44c-1.58 0-3.06.43-4.32 1.17l-8.04 4.46c-1.04.59-1.68 1.7-1.68 2.89v.95c0 .56-.32 1.08-.82 1.33l-2.68 1.3c-.34.17-.49.54-.49.91 0 1.5 1.11 4.04 4.85 4.04h2.85l-1.16 2.54c-.09.22.07.46.31.46h2.6c.13 0 .25-.08.31-.2l1.27-2.8h11.68c.15 0 .28.12.28.28v2.39c0 .18.15.33.33.33h2.33c.18 0 .33-.15.33-.33v-4.5l.62-6.66c0-4.73-3.84-8.56-8.57-8.56"/><path fill="url(#k)" d="M20.042 9.44c-1.58 0-3.06.43-4.32 1.17l-8.04 4.46c-1.04.59-1.68 1.7-1.68 2.89v.95c0 .56-.32 1.08-.82 1.33l-2.68 1.3c-.34.17-.49.54-.49.91 0 1.5 1.11 4.04 4.85 4.04h2.85l-1.16 2.54c-.09.22.07.46.31.46h2.6c.13 0 .25-.08.31-.2l1.27-2.8h11.68c.15 0 .28.12.28.28v2.39c0 .18.15.33.33.33h2.33c.18 0 .33-.15.33-.33v-4.5l.62-6.66c0-4.73-3.84-8.56-8.57-8.56"/><path fill="url(#l)" d="M20.042 9.44c-1.58 0-3.06.43-4.32 1.17l-8.04 4.46c-1.04.59-1.68 1.7-1.68 2.89v.95c0 .56-.32 1.08-.82 1.33l-2.68 1.3c-.34.17-.49.54-.49.91 0 1.5 1.11 4.04 4.85 4.04h2.85l-1.16 2.54c-.09.22.07.46.31.46h2.6c.13 0 .25-.08.31-.2l1.27-2.8h11.68c.15 0 .28.12.28.28v2.39c0 .18.15.33.33.33h2.33c.18 0 .33-.15.33-.33v-4.5l.62-6.66c0-4.73-3.84-8.56-8.57-8.56"/><path fill="url(#m)" d="M20.042 9.44c-1.58 0-3.06.43-4.32 1.17l-8.04 4.46c-1.04.59-1.68 1.7-1.68 2.89v.95c0 .56-.32 1.08-.82 1.33l-2.68 1.3c-.34.17-.49.54-.49.91 0 1.5 1.11 4.04 4.85 4.04h2.85l-1.16 2.54c-.09.22.07.46.31.46h2.6c.13 0 .25-.08.31-.2l1.27-2.8h11.68c.15 0 .28.12.28.28v2.39c0 .18.15.33.33.33h2.33c.18 0 .33-.15.33-.33v-4.5l.62-6.66c0-4.73-3.84-8.56-8.57-8.56"/><path fill="url(#n)" d="M20.042 9.44c-1.58 0-3.06.43-4.32 1.17l-8.04 4.46c-1.04.59-1.68 1.7-1.68 2.89v.95c0 .56-.32 1.08-.82 1.33l-2.68 1.3c-.34.17-.49.54-.49.91 0 1.5 1.11 4.04 4.85 4.04h2.85l-1.16 2.54c-.09.22.07.46.31.46h2.6c.13 0 .25-.08.31-.2l1.27-2.8h11.68c.15 0 .28.12.28.28v2.39c0 .18.15.33.33.33h2.33c.18 0 .33-.15.33-.33v-4.5l.62-6.66c0-4.73-3.84-8.56-8.57-8.56"/><path fill="url(#o)" d="M20.042 9.44c-1.58 0-3.06.43-4.32 1.17l-8.04 4.46c-1.04.59-1.68 1.7-1.68 2.89v.95c0 .56-.32 1.08-.82 1.33l-2.68 1.3c-.34.17-.49.54-.49.91 0 1.5 1.11 4.04 4.85 4.04h2.85l-1.16 2.54c-.09.22.07.46.31.46h2.6c.13 0 .25-.08.31-.2l1.27-2.8h11.68c.15 0 .28.12.28.28v2.39c0 .18.15.33.33.33h2.33c.18 0 .33-.15.33-.33v-4.5l.62-6.66c0-4.73-3.84-8.56-8.57-8.56"/><path fill="url(#p)" d="M20.042 9.44c-1.58 0-3.06.43-4.32 1.17l-8.04 4.46c-1.04.59-1.68 1.7-1.68 2.89v.95c0 .56-.32 1.08-.82 1.33l-2.68 1.3c-.34.17-.49.54-.49.91 0 1.5 1.11 4.04 4.85 4.04h2.85l-1.16 2.54c-.09.22.07.46.31.46h2.6c.13 0 .25-.08.31-.2l1.27-2.8h11.68c.15 0 .28.12.28.28v2.39c0 .18.15.33.33.33h2.33c.18 0 .33-.15.33-.33v-4.5l.62-6.66c0-4.73-3.84-8.56-8.57-8.56"/><path fill="url(#q)" d="M20.042 9.44c-1.58 0-3.06.43-4.32 1.17l-8.04 4.46c-1.04.59-1.68 1.7-1.68 2.89v.95c0 .56-.32 1.08-.82 1.33l-2.68 1.3c-.34.17-.49.54-.49.91 0 1.5 1.11 4.04 4.85 4.04h2.85l-1.16 2.54c-.09.22.07.46.31.46h2.6c.13 0 .25-.08.31-.2l1.27-2.8h11.68c.15 0 .28.12.28.28v2.39c0 .18.15.33.33.33h2.33c.18 0 .33-.15.33-.33v-4.5l.62-6.66c0-4.73-3.84-8.56-8.57-8.56"/><path fill="url(#r)" d="M20.042 9.44c-1.58 0-3.06.43-4.32 1.17l-8.04 4.46c-1.04.59-1.68 1.7-1.68 2.89v.95c0 .56-.32 1.08-.82 1.33l-2.68 1.3c-.34.17-.49.54-.49.91 0 1.5 1.11 4.04 4.85 4.04h2.85l-1.16 2.54c-.09.22.07.46.31.46h2.6c.13 0 .25-.08.31-.2l1.27-2.8h11.68c.15 0 .28.12.28.28v2.39c0 .18.15.33.33.33h2.33c.18 0 .33-.15.33-.33v-4.5l.62-6.66c0-4.73-3.84-8.56-8.57-8.56"/><path fill="url(#s)" fill-opacity=".5" d="M20.042 9.44c-1.58 0-3.06.43-4.32 1.17l-8.04 4.46c-1.04.59-1.68 1.7-1.68 2.89v.95c0 .56-.32 1.08-.82 1.33l-2.68 1.3c-.34.17-.49.54-.49.91 0 1.5 1.11 4.04 4.85 4.04h2.85l-1.16 2.54c-.09.22.07.46.31.46h2.6c.13 0 .25-.08.31-.2l1.27-2.8h11.68c.15 0 .28.12.28.28v2.39c0 .18.15.33.33.33h2.33c.18 0 .33-.15.33-.33v-4.5l.62-6.66c0-4.73-3.84-8.56-8.57-8.56"/><path fill="url(#t)" d="M10.758 24.19H6.442a5 5 0 0 1-3.535-1.465l-.787-.786a1.2 1.2 0 0 0-.108.51c0 1.5 1.11 4.04 4.85 4.04H9.71z"/><path fill="url(#u)" d="M10.758 24.19H6.442a5 5 0 0 1-3.535-1.465l-.787-.786a1.2 1.2 0 0 0-.108.51c0 1.5 1.11 4.04 4.85 4.04H9.71z"/><path fill="url(#v)" d="M10.758 24.19H6.442a5 5 0 0 1-3.535-1.465l-.787-.786a1.2 1.2 0 0 0-.108.51c0 1.5 1.11 4.04 4.85 4.04H9.71z"/><path fill="url(#w)" d="M10.758 24.19H6.442a5 5 0 0 1-3.535-1.465l-.787-.786a1.2 1.2 0 0 0-.108.51c0 1.5 1.11 4.04 4.85 4.04H9.71z"/><path fill="url(#x)" d="m25 26.738 2.137-4.83H15.168l-2.12 4.582h11.674a.28.28 0 0 1 .278.248"/><path fill="url(#y)" d="m25 26.738 2.137-4.83H15.168l-2.12 4.582h11.674a.28.28 0 0 1 .278.248"/><path fill="url(#z)" d="m25 26.738 2.137-4.83H15.168l-2.12 4.582h11.674a.28.28 0 0 1 .278.248"/><path fill="url(#A)" d="m25 26.738 2.137-4.83H15.168l-2.12 4.582h11.674a.28.28 0 0 1 .278.248"/><path fill="url(#B)" d="M2.972 23.324a.96.96 0 1 0 0-1.92.96.96 0 0 0 0 1.92"/><path fill="url(#C)" d="M2.972 23.324a.96.96 0 1 0 0-1.92.96.96 0 0 0 0 1.92"/><path fill="url(#D)" d="M12.622 19.04a1.07 1.07 0 1 0 0-2.14 1.07 1.07 0 0 0 0 2.14"/><path fill="url(#E)" d="M12.622 19.04a1.07 1.07 0 1 0 0-2.14 1.07 1.07 0 0 0 0 2.14"/><g filter="url(#F)"><path fill="url(#G)" d="M29.932 19.46c.11-.26.07-.56-.1-.79l-.4-.52c-.28-.37-.35-.87-.17-1.3l.6-1.49c.14-.34.03-.74-.27-.95l-1.05-.75c-.35-.25-.56-.65-.56-1.08v-1.66c0-.44-.36-.8-.8-.8h-1.86c-.4 0-.78-.18-1.03-.49l-1.15-1.4a.804.804 0 0 0-.94-.23l-1.73.76c-.26.11-.54.14-.81.08l-1.79-.38a.8.8 0 0 0-.76.25l-1.2 1.34c-.25.28-.61.45-.99.45h-1.78c-.3 0-.58.17-.71.44l-.5.97c-.23.45-.69.73-1.19.73h-.81a.82.82 0 0 0-.73.46l-.41.9c-.2.43-.74.77-1.21.77h-.78c-.44 0-.8.36-.8.8v2.4h3.87c.32 0 .6-.21.68-.52a2.13 2.13 0 0 1 2.16-1.61c1.08.05 1.97.92 2.03 2a2.14 2.14 0 0 1-1.51 2.17c-.02.01-.04.01-.05.02-.01 0-.02.01-.03.01-.03.01-.06.01-.09.02 1.17 2.64 3.8 4.44 6.94 4.44h8.01l1.53-1.17c.16-.12.28-.3.31-.5.02-.15 0-.31-.07-.46l-.31-.66c-.16-.34-.17-.73-.02-1.08z"/><path fill="url(#H)" d="M29.932 19.46c.11-.26.07-.56-.1-.79l-.4-.52c-.28-.37-.35-.87-.17-1.3l.6-1.49c.14-.34.03-.74-.27-.95l-1.05-.75c-.35-.25-.56-.65-.56-1.08v-1.66c0-.44-.36-.8-.8-.8h-1.86c-.4 0-.78-.18-1.03-.49l-1.15-1.4a.804.804 0 0 0-.94-.23l-1.73.76c-.26.11-.54.14-.81.08l-1.79-.38a.8.8 0 0 0-.76.25l-1.2 1.34c-.25.28-.61.45-.99.45h-1.78c-.3 0-.58.17-.71.44l-.5.97c-.23.45-.69.73-1.19.73h-.81a.82.82 0 0 0-.73.46l-.41.9c-.2.43-.74.77-1.21.77h-.78c-.44 0-.8.36-.8.8v2.4h3.87c.32 0 .6-.21.68-.52a2.13 2.13 0 0 1 2.16-1.61c1.08.05 1.97.92 2.03 2a2.14 2.14 0 0 1-1.51 2.17c-.02.01-.04.01-.05.02-.01 0-.02.01-.03.01-.03.01-.06.01-.09.02 1.17 2.64 3.8 4.44 6.94 4.44h8.01l1.53-1.17c.16-.12.28-.3.31-.5.02-.15 0-.31-.07-.46l-.31-.66c-.16-.34-.17-.73-.02-1.08z"/><path fill="url(#I)" d="M29.932 19.46c.11-.26.07-.56-.1-.79l-.4-.52c-.28-.37-.35-.87-.17-1.3l.6-1.49c.14-.34.03-.74-.27-.95l-1.05-.75c-.35-.25-.56-.65-.56-1.08v-1.66c0-.44-.36-.8-.8-.8h-1.86c-.4 0-.78-.18-1.03-.49l-1.15-1.4a.804.804 0 0 0-.94-.23l-1.73.76c-.26.11-.54.14-.81.08l-1.79-.38a.8.8 0 0 0-.76.25l-1.2 1.34c-.25.28-.61.45-.99.45h-1.78c-.3 0-.58.17-.71.44l-.5.97c-.23.45-.69.73-1.19.73h-.81a.82.82 0 0 0-.73.46l-.41.9c-.2.43-.74.77-1.21.77h-.78c-.44 0-.8.36-.8.8v2.4h3.87c.32 0 .6-.21.68-.52a2.13 2.13 0 0 1 2.16-1.61c1.08.05 1.97.92 2.03 2a2.14 2.14 0 0 1-1.51 2.17c-.02.01-.04.01-.05.02-.01 0-.02.01-.03.01-.03.01-.06.01-.09.02 1.17 2.64 3.8 4.44 6.94 4.44h8.01l1.53-1.17c.16-.12.28-.3.31-.5.02-.15 0-.31-.07-.46l-.31-.66c-.16-.34-.17-.73-.02-1.08z"/><path fill="url(#J)" d="M29.932 19.46c.11-.26.07-.56-.1-.79l-.4-.52c-.28-.37-.35-.87-.17-1.3l.6-1.49c.14-.34.03-.74-.27-.95l-1.05-.75c-.35-.25-.56-.65-.56-1.08v-1.66c0-.44-.36-.8-.8-.8h-1.86c-.4 0-.78-.18-1.03-.49l-1.15-1.4a.804.804 0 0 0-.94-.23l-1.73.76c-.26.11-.54.14-.81.08l-1.79-.38a.8.8 0 0 0-.76.25l-1.2 1.34c-.25.28-.61.45-.99.45h-1.78c-.3 0-.58.17-.71.44l-.5.97c-.23.45-.69.73-1.19.73h-.81a.82.82 0 0 0-.73.46l-.41.9c-.2.43-.74.77-1.21.77h-.78c-.44 0-.8.36-.8.8v2.4h3.87c.32 0 .6-.21.68-.52a2.13 2.13 0 0 1 2.16-1.61c1.08.05 1.97.92 2.03 2a2.14 2.14 0 0 1-1.51 2.17c-.02.01-.04.01-.05.02-.01 0-.02.01-.03.01-.03.01-.06.01-.09.02 1.17 2.64 3.8 4.44 6.94 4.44h8.01l1.53-1.17c.16-.12.28-.3.31-.5.02-.15 0-.31-.07-.46l-.31-.66c-.16-.34-.17-.73-.02-1.08z"/><path fill="url(#K)" d="M29.932 19.46c.11-.26.07-.56-.1-.79l-.4-.52c-.28-.37-.35-.87-.17-1.3l.6-1.49c.14-.34.03-.74-.27-.95l-1.05-.75c-.35-.25-.56-.65-.56-1.08v-1.66c0-.44-.36-.8-.8-.8h-1.86c-.4 0-.78-.18-1.03-.49l-1.15-1.4a.804.804 0 0 0-.94-.23l-1.73.76c-.26.11-.54.14-.81.08l-1.79-.38a.8.8 0 0 0-.76.25l-1.2 1.34c-.25.28-.61.45-.99.45h-1.78c-.3 0-.58.17-.71.44l-.5.97c-.23.45-.69.73-1.19.73h-.81a.82.82 0 0 0-.73.46l-.41.9c-.2.43-.74.77-1.21.77h-.78c-.44 0-.8.36-.8.8v2.4h3.87c.32 0 .6-.21.68-.52a2.13 2.13 0 0 1 2.16-1.61c1.08.05 1.97.92 2.03 2a2.14 2.14 0 0 1-1.51 2.17c-.02.01-.04.01-.05.02-.01 0-.02.01-.03.01-.03.01-.06.01-.09.02 1.17 2.64 3.8 4.44 6.94 4.44h8.01l1.53-1.17c.16-.12.28-.3.31-.5.02-.15 0-.31-.07-.46l-.31-.66c-.16-.34-.17-.73-.02-1.08z"/><path fill="url(#L)" d="M29.932 19.46c.11-.26.07-.56-.1-.79l-.4-.52c-.28-.37-.35-.87-.17-1.3l.6-1.49c.14-.34.03-.74-.27-.95l-1.05-.75c-.35-.25-.56-.65-.56-1.08v-1.66c0-.44-.36-.8-.8-.8h-1.86c-.4 0-.78-.18-1.03-.49l-1.15-1.4a.804.804 0 0 0-.94-.23l-1.73.76c-.26.11-.54.14-.81.08l-1.79-.38a.8.8 0 0 0-.76.25l-1.2 1.34c-.25.28-.61.45-.99.45h-1.78c-.3 0-.58.17-.71.44l-.5.97c-.23.45-.69.73-1.19.73h-.81a.82.82 0 0 0-.73.46l-.41.9c-.2.43-.74.77-1.21.77h-.78c-.44 0-.8.36-.8.8v2.4h3.87c.32 0 .6-.21.68-.52a2.13 2.13 0 0 1 2.16-1.61c1.08.05 1.97.92 2.03 2a2.14 2.14 0 0 1-1.51 2.17c-.02.01-.04.01-.05.02-.01 0-.02.01-.03.01-.03.01-.06.01-.09.02 1.17 2.64 3.8 4.44 6.94 4.44h8.01l1.53-1.17c.16-.12.28-.3.31-.5.02-.15 0-.31-.07-.46l-.31-.66c-.16-.34-.17-.73-.02-1.08z"/><path fill="url(#M)" d="M29.932 19.46c.11-.26.07-.56-.1-.79l-.4-.52c-.28-.37-.35-.87-.17-1.3l.6-1.49c.14-.34.03-.74-.27-.95l-1.05-.75c-.35-.25-.56-.65-.56-1.08v-1.66c0-.44-.36-.8-.8-.8h-1.86c-.4 0-.78-.18-1.03-.49l-1.15-1.4a.804.804 0 0 0-.94-.23l-1.73.76c-.26.11-.54.14-.81.08l-1.79-.38a.8.8 0 0 0-.76.25l-1.2 1.34c-.25.28-.61.45-.99.45h-1.78c-.3 0-.58.17-.71.44l-.5.97c-.23.45-.69.73-1.19.73h-.81a.82.82 0 0 0-.73.46l-.41.9c-.2.43-.74.77-1.21.77h-.78c-.44 0-.8.36-.8.8v2.4h3.87c.32 0 .6-.21.68-.52a2.13 2.13 0 0 1 2.16-1.61c1.08.05 1.97.92 2.03 2a2.14 2.14 0 0 1-1.51 2.17c-.02.01-.04.01-.05.02-.01 0-.02.01-.03.01-.03.01-.06.01-.09.02 1.17 2.64 3.8 4.44 6.94 4.44h8.01l1.53-1.17c.16-.12.28-.3.31-.5.02-.15 0-.31-.07-.46l-.31-.66c-.16-.34-.17-.73-.02-1.08z"/><path fill="url(#N)" d="M29.932 19.46c.11-.26.07-.56-.1-.79l-.4-.52c-.28-.37-.35-.87-.17-1.3l.6-1.49c.14-.34.03-.74-.27-.95l-1.05-.75c-.35-.25-.56-.65-.56-1.08v-1.66c0-.44-.36-.8-.8-.8h-1.86c-.4 0-.78-.18-1.03-.49l-1.15-1.4a.804.804 0 0 0-.94-.23l-1.73.76c-.26.11-.54.14-.81.08l-1.79-.38a.8.8 0 0 0-.76.25l-1.2 1.34c-.25.28-.61.45-.99.45h-1.78c-.3 0-.58.17-.71.44l-.5.97c-.23.45-.69.73-1.19.73h-.81a.82.82 0 0 0-.73.46l-.41.9c-.2.43-.74.77-1.21.77h-.78c-.44 0-.8.36-.8.8v2.4h3.87c.32 0 .6-.21.68-.52a2.13 2.13 0 0 1 2.16-1.61c1.08.05 1.97.92 2.03 2a2.14 2.14 0 0 1-1.51 2.17c-.02.01-.04.01-.05.02-.01 0-.02.01-.03.01-.03.01-.06.01-.09.02 1.17 2.64 3.8 4.44 6.94 4.44h8.01l1.53-1.17c.16-.12.28-.3.31-.5.02-.15 0-.31-.07-.46l-.31-.66c-.16-.34-.17-.73-.02-1.08z"/><path fill="url(#O)" d="M29.932 19.46c.11-.26.07-.56-.1-.79l-.4-.52c-.28-.37-.35-.87-.17-1.3l.6-1.49c.14-.34.03-.74-.27-.95l-1.05-.75c-.35-.25-.56-.65-.56-1.08v-1.66c0-.44-.36-.8-.8-.8h-1.86c-.4 0-.78-.18-1.03-.49l-1.15-1.4a.804.804 0 0 0-.94-.23l-1.73.76c-.26.11-.54.14-.81.08l-1.79-.38a.8.8 0 0 0-.76.25l-1.2 1.34c-.25.28-.61.45-.99.45h-1.78c-.3 0-.58.17-.71.44l-.5.97c-.23.45-.69.73-1.19.73h-.81a.82.82 0 0 0-.73.46l-.41.9c-.2.43-.74.77-1.21.77h-.78c-.44 0-.8.36-.8.8v2.4h3.87c.32 0 .6-.21.68-.52a2.13 2.13 0 0 1 2.16-1.61c1.08.05 1.97.92 2.03 2a2.14 2.14 0 0 1-1.51 2.17c-.02.01-.04.01-.05.02-.01 0-.02.01-.03.01-.03.01-.06.01-.09.02 1.17 2.64 3.8 4.44 6.94 4.44h8.01l1.53-1.17c.16-.12.28-.3.31-.5.02-.15 0-.31-.07-.46l-.31-.66c-.16-.34-.17-.73-.02-1.08z"/><path fill="url(#P)" d="M29.932 19.46c.11-.26.07-.56-.1-.79l-.4-.52c-.28-.37-.35-.87-.17-1.3l.6-1.49c.14-.34.03-.74-.27-.95l-1.05-.75c-.35-.25-.56-.65-.56-1.08v-1.66c0-.44-.36-.8-.8-.8h-1.86c-.4 0-.78-.18-1.03-.49l-1.15-1.4a.804.804 0 0 0-.94-.23l-1.73.76c-.26.11-.54.14-.81.08l-1.79-.38a.8.8 0 0 0-.76.25l-1.2 1.34c-.25.28-.61.45-.99.45h-1.78c-.3 0-.58.17-.71.44l-.5.97c-.23.45-.69.73-1.19.73h-.81a.82.82 0 0 0-.73.46l-.41.9c-.2.43-.74.77-1.21.77h-.78c-.44 0-.8.36-.8.8v2.4h3.87c.32 0 .6-.21.68-.52a2.13 2.13 0 0 1 2.16-1.61c1.08.05 1.97.92 2.03 2a2.14 2.14 0 0 1-1.51 2.17c-.02.01-.04.01-.05.02-.01 0-.02.01-.03.01-.03.01-.06.01-.09.02 1.17 2.64 3.8 4.44 6.94 4.44h8.01l1.53-1.17c.16-.12.28-.3.31-.5.02-.15 0-.31-.07-.46l-.31-.66c-.16-.34-.17-.73-.02-1.08z"/><path fill="url(#Q)" d="M29.932 19.46c.11-.26.07-.56-.1-.79l-.4-.52c-.28-.37-.35-.87-.17-1.3l.6-1.49c.14-.34.03-.74-.27-.95l-1.05-.75c-.35-.25-.56-.65-.56-1.08v-1.66c0-.44-.36-.8-.8-.8h-1.86c-.4 0-.78-.18-1.03-.49l-1.15-1.4a.804.804 0 0 0-.94-.23l-1.73.76c-.26.11-.54.14-.81.08l-1.79-.38a.8.8 0 0 0-.76.25l-1.2 1.34c-.25.28-.61.45-.99.45h-1.78c-.3 0-.58.17-.71.44l-.5.97c-.23.45-.69.73-1.19.73h-.81a.82.82 0 0 0-.73.46l-.41.9c-.2.43-.74.77-1.21.77h-.78c-.44 0-.8.36-.8.8v2.4h3.87c.32 0 .6-.21.68-.52a2.13 2.13 0 0 1 2.16-1.61c1.08.05 1.97.92 2.03 2a2.14 2.14 0 0 1-1.51 2.17c-.02.01-.04.01-.05.02-.01 0-.02.01-.03.01-.03.01-.06.01-.09.02 1.17 2.64 3.8 4.44 6.94 4.44h8.01l1.53-1.17c.16-.12.28-.3.31-.5.02-.15 0-.31-.07-.46l-.31-.66c-.16-.34-.17-.73-.02-1.08z"/><path fill="url(#R)" d="M29.932 19.46c.11-.26.07-.56-.1-.79l-.4-.52c-.28-.37-.35-.87-.17-1.3l.6-1.49c.14-.34.03-.74-.27-.95l-1.05-.75c-.35-.25-.56-.65-.56-1.08v-1.66c0-.44-.36-.8-.8-.8h-1.86c-.4 0-.78-.18-1.03-.49l-1.15-1.4a.804.804 0 0 0-.94-.23l-1.73.76c-.26.11-.54.14-.81.08l-1.79-.38a.8.8 0 0 0-.76.25l-1.2 1.34c-.25.28-.61.45-.99.45h-1.78c-.3 0-.58.17-.71.44l-.5.97c-.23.45-.69.73-1.19.73h-.81a.82.82 0 0 0-.73.46l-.41.9c-.2.43-.74.77-1.21.77h-.78c-.44 0-.8.36-.8.8v2.4h3.87c.32 0 .6-.21.68-.52a2.13 2.13 0 0 1 2.16-1.61c1.08.05 1.97.92 2.03 2a2.14 2.14 0 0 1-1.51 2.17c-.02.01-.04.01-.05.02-.01 0-.02.01-.03.01-.03.01-.06.01-.09.02 1.17 2.64 3.8 4.44 6.94 4.44h8.01l1.53-1.17c.16-.12.28-.3.31-.5.02-.15 0-.31-.07-.46l-.31-.66c-.16-.34-.17-.73-.02-1.08z"/><path fill="url(#S)" d="M29.932 19.46c.11-.26.07-.56-.1-.79l-.4-.52c-.28-.37-.35-.87-.17-1.3l.6-1.49c.14-.34.03-.74-.27-.95l-1.05-.75c-.35-.25-.56-.65-.56-1.08v-1.66c0-.44-.36-.8-.8-.8h-1.86c-.4 0-.78-.18-1.03-.49l-1.15-1.4a.804.804 0 0 0-.94-.23l-1.73.76c-.26.11-.54.14-.81.08l-1.79-.38a.8.8 0 0 0-.76.25l-1.2 1.34c-.25.28-.61.45-.99.45h-1.78c-.3 0-.58.17-.71.44l-.5.97c-.23.45-.69.73-1.19.73h-.81a.82.82 0 0 0-.73.46l-.41.9c-.2.43-.74.77-1.21.77h-.78c-.44 0-.8.36-.8.8v2.4h3.87c.32 0 .6-.21.68-.52a2.13 2.13 0 0 1 2.16-1.61c1.08.05 1.97.92 2.03 2a2.14 2.14 0 0 1-1.51 2.17c-.02.01-.04.01-.05.02-.01 0-.02.01-.03.01-.03.01-.06.01-.09.02 1.17 2.64 3.8 4.44 6.94 4.44h8.01l1.53-1.17c.16-.12.28-.3.31-.5.02-.15 0-.31-.07-.46l-.31-.66c-.16-.34-.17-.73-.02-1.08z"/></g><rect width="1" height="2.004" x="7.307" y="21.518" fill="url(#T)" rx=".5"/><rect width="1" height="2.004" x="7.307" y="21.518" fill="url(#U)" rx=".5"/><rect width="1" height="2.004" x="7.307" y="21.518" fill="url(#V)" rx=".5"/><g filter="url(#W)"><path fill="#ffcd9f" d="M26.699 25.065h.953v3.844h-.953z"/></g><g filter="url(#X)"><path fill="url(#Y)" d="M12.043 25.065h.953l-1.75 3.844h-.953z"/></g><g filter="url(#Z)"><path fill="url(#aa)" d="m17.887 8.909 1.078 3.015 2.125-1.937z"/></g><g filter="url(#ab)"><path fill="url(#ac)" d="m22.7 8.424-.594 2.938 2.906.078z"/></g><g filter="url(#ad)"><path fill="url(#ae)" d="m27.512 10.714-2.125 2.132 2.234 1.485z"/></g><g filter="url(#af)"><path fill="url(#ag)" d="m29.512 14.784-2.625 1.156-.282-.946z"/></g><g filter="url(#ah)"><path fill="url(#ai)" d="m29.59 18.94-1.078-1.235-.219 1.516z"/></g><g filter="url(#aj)"><path fill="url(#ak)" d="m29.55 22.612-.85-1.485-.344.922z"/></g><path fill="url(#al)" d="M11.606 20.05h1.468c.274.695.727 1.28.938 1.577-1.613.038-2.271-1.041-2.407-1.578"/><path fill="url(#am)" d="M9.8 18.971c.663-.331.782-1.177.759-1.539-.15.5-.54.535-.7.535-.027.348-.058.809-.058 1.004"/><defs><radialGradient id="a" cx="0" cy="0" r="1" gradientTransform="rotate(258.148 20.372 7.933)scale(3.86106 2.2429)" gradientUnits="userSpaceOnUse"><stop stop-color="#e29183"/><stop offset="1" stop-color="#c87154"/></radialGradient><radialGradient id="e" cx="0" cy="0" r="1" gradientTransform="rotate(-75.514 30.294 .211)scale(4.24754 3.39264)" gradientUnits="userSpaceOnUse"><stop stop-color="#e29183"/><stop offset="1" stop-color="#c87154"/></radialGradient><radialGradient id="j" cx="0" cy="0" r="1" gradientTransform="rotate(3.18 -498.69 464.755)scale(.56337 2.472)" gradientUnits="userSpaceOnUse"><stop stop-color="#db7d59"/><stop offset="1" stop-color="#db7d59" stop-opacity="0"/></radialGradient><radialGradient id="k" cx="0" cy="0" r="1" gradientTransform="rotate(22.52 -66.962 36.412)scale(.6935 3.04305)" gradientUnits="userSpaceOnUse"><stop stop-color="#db7d59"/><stop offset="1" stop-color="#db7d59" stop-opacity="0"/></radialGradient><radialGradient id="l" cx="0" cy="0" r="1" gradientTransform="rotate(205.741 9.398 13.292)scale(.9714 5.75202)" gradientUnits="userSpaceOnUse"><stop stop-color="#db7d59"/><stop offset="1" stop-color="#db7d59" stop-opacity="0"/></radialGradient><radialGradient id="m" cx="0" cy="0" r="1" gradientTransform="rotate(215.933 19.114 10.519)scale(2.10341 9.22953)" gradientUnits="userSpaceOnUse"><stop stop-color="#db7d59"/><stop offset=".963" stop-color="#db7d59" stop-opacity="0"/></radialGradient><radialGradient id="p" cx="0" cy="0" r="1" gradientTransform="rotate(39.66 -25.079 15.868)scale(4.74938 8.66498)" gradientUnits="userSpaceOnUse"><stop stop-color="#ecaf77"/><stop offset="1" stop-color="#ecaf77" stop-opacity="0"/></radialGradient><radialGradient id="q" cx="0" cy="0" r="1" gradientTransform="rotate(42.78 -22.334 16.15)scale(1.59661 3.82965)" gradientUnits="userSpaceOnUse"><stop stop-color="#cf8255"/><stop offset="1" stop-color="#cf8255" stop-opacity="0"/></radialGradient><radialGradient id="r" cx="0" cy="0" r="1" gradientTransform="rotate(168.906 6.782 9.745)scale(2.59856 3.13869)" gradientUnits="userSpaceOnUse"><stop stop-color="#e9b290"/><stop offset="1" stop-color="#e9b290" stop-opacity="0"/></radialGradient><radialGradient id="s" cx="0" cy="0" r="1" gradientTransform="matrix(1.25 .4375 -.67013 1.91467 10.496 16.752)" gradientUnits="userSpaceOnUse"><stop stop-color="#ab5925"/><stop offset=".918" stop-color="#ab5925" stop-opacity="0"/></radialGradient><radialGradient id="u" cx="0" cy="0" r="1" gradientTransform="rotate(-23.026 72.774 -.707)scale(6.79104 2.7157)" gradientUnits="userSpaceOnUse"><stop stop-color="#cc6c84"/><stop offset="1" stop-color="#cc6c84" stop-opacity="0"/></radialGradient><radialGradient id="w" cx="0" cy="0" r="1" gradientTransform="rotate(233.427 11.619 10.349)scale(.60313 .92453)" gradientUnits="userSpaceOnUse"><stop stop-color="#dfa27a"/><stop offset="1" stop-color="#dfa27a" stop-opacity="0"/></radialGradient><radialGradient id="y" cx="0" cy="0" r="1" gradientTransform="rotate(-46.527 42.367 -6.089)scale(9.94722 6.4709)" gradientUnits="userSpaceOnUse"><stop stop-color="#cc6c84"/><stop offset="1" stop-color="#cc6c84" stop-opacity="0"/></radialGradient><radialGradient id="B" cx="0" cy="0" r="1" gradientTransform="rotate(89.315 -9.753 12.414)scale(1.30634 1.16466)" gradientUnits="userSpaceOnUse"><stop stop-color="#58484c"/><stop offset="1" stop-color="#482e44"/></radialGradient><radialGradient id="C" cx="0" cy="0" r="1" gradientTransform="matrix(-.42 .57 -.48049 -.35404 3.287 22.16)" gradientUnits="userSpaceOnUse"><stop stop-color="#675b5c"/><stop offset="1" stop-color="#5c5051" stop-opacity="0"/></radialGradient><radialGradient id="D" cx="0" cy="0" r="1" gradientTransform="matrix(1.53907 -.625 .54904 1.352 11.996 18.377)" gradientUnits="userSpaceOnUse"><stop stop-color="#d99974"/><stop offset="1" stop-color="#af6f4e"/></radialGradient><radialGradient id="E" cx="0" cy="0" r="1" gradientTransform="rotate(70.278 -5.968 17.16)scale(1.75946 1.54189)" gradientUnits="userSpaceOnUse"><stop stop-color="#bf725c"/><stop offset="1" stop-color="#bf725c" stop-opacity="0"/></radialGradient><radialGradient id="G" cx="0" cy="0" r="1" gradientTransform="rotate(131.115 9.07 12.91)scale(10.2868)" gradientUnits="userSpaceOnUse"><stop offset=".201" stop-color="#bd7e76"/><stop offset="1" stop-color="#8c4b4d"/></radialGradient><radialGradient id="I" cx="0" cy="0" r="1" gradientTransform="rotate(233.661 10.098 6.177)scale(1.68757 2.33849)" gradientUnits="userSpaceOnUse"><stop stop-color="#8a3e68"/><stop offset="1" stop-color="#8a3e68" stop-opacity="0"/></radialGradient><radialGradient id="J" cx="0" cy="0" r="1" gradientTransform="rotate(-25.554 42.794 -3.399)scale(5.94048 8.60371)" gradientUnits="userSpaceOnUse"><stop stop-color="#795654"/><stop offset="1" stop-color="#795654" stop-opacity="0"/></radialGradient><radialGradient id="K" cx="0" cy="0" r="1" gradientTransform="rotate(248.6 12.2 4.479)scale(2.48374 2.74815)" gradientUnits="userSpaceOnUse"><stop offset=".446" stop-color="#502219"/><stop offset="1" stop-color="#6a2f23" stop-opacity="0"/></radialGradient><radialGradient id="L" cx="0" cy="0" r="1" gradientTransform="rotate(52.125 -2.08 19.876)scale(2.13783 1.81715)" gradientUnits="userSpaceOnUse"><stop stop-color="#bd7e76"/><stop offset="1" stop-color="#bd7e76" stop-opacity="0"/></radialGradient><radialGradient id="M" cx="0" cy="0" r="1" gradientTransform="rotate(39.472 -10.583 19.497)scale(2.40873 1.77516)" gradientUnits="userSpaceOnUse"><stop stop-color="#bd7e76"/><stop offset=".999" stop-color="#bd7e76" stop-opacity="0"/></radialGradient><radialGradient id="N" cx="0" cy="0" r="1" gradientTransform="rotate(101.65 7.795 12.334)scale(3.09501 1.62604)" gradientUnits="userSpaceOnUse"><stop stop-color="#723b33"/><stop offset="1" stop-color="#723b33" stop-opacity="0"/></radialGradient><radialGradient id="O" cx="0" cy="0" r="1" gradientTransform="matrix(-2.53125 2 -1.38422 -1.7519 26.105 8.971)" gradientUnits="userSpaceOnUse"><stop stop-color="#723b33"/><stop offset="1" stop-color="#723b33" stop-opacity="0"/></radialGradient><radialGradient id="P" cx="0" cy="0" r="1" gradientTransform="rotate(142.386 12.278 11.123)scale(2.40645 1.79693)" gradientUnits="userSpaceOnUse"><stop stop-color="#723b33"/><stop offset="1" stop-color="#723b33" stop-opacity="0"/></radialGradient><radialGradient id="Q" cx="0" cy="0" r="1" gradientTransform="rotate(157.874 13.743 11.302)scale(3.06983 2.02344)" gradientUnits="userSpaceOnUse"><stop stop-color="#723b33"/><stop offset="1" stop-color="#723b33" stop-opacity="0"/></radialGradient><radialGradient id="R" cx="0" cy="0" r="1" gradientTransform="rotate(176.479 14.765 10.855)scale(2.03509 1.69225)" gradientUnits="userSpaceOnUse"><stop stop-color="#723b33"/><stop offset="1" stop-color="#723b33" stop-opacity="0"/></radialGradient><radialGradient id="S" cx="0" cy="0" r="1" gradientTransform="rotate(90.623 4.066 12.402)scale(2.87517 1.57019)" gradientUnits="userSpaceOnUse"><stop stop-color="#723b33"/><stop offset="1" stop-color="#723b33" stop-opacity="0"/></radialGradient><radialGradient id="V" cx="0" cy="0" r="1" gradientTransform="rotate(248.022 11.592 8.55)scale(1.03072 1.10583)" gradientUnits="userSpaceOnUse"><stop offset=".814" stop-color="#594c4f" stop-opacity="0"/><stop offset="1" stop-color="#594c4f"/></radialGradient><linearGradient id="b" x1="17.968" x2="16.543" y1="26.19" y2="28.002" gradientUnits="userSpaceOnUse"><stop stop-color="#c86b4d"/><stop offset="1" stop-color="#c86b4d" stop-opacity="0"/></linearGradient><linearGradient id="c" x1="17.968" x2="17.105" y1="27.237" y2="27.361" gradientUnits="userSpaceOnUse"><stop stop-color="#c76648"/><stop offset="1" stop-color="#c86b4d" stop-opacity="0"/></linearGradient><linearGradient id="d" x1="15.684" x2="15.71" y1="29.659" y2="29.105" gradientUnits="userSpaceOnUse"><stop stop-color="#cc6c84"/><stop offset="1" stop-color="#cc6c84" stop-opacity="0"/></linearGradient><linearGradient id="f" x1="22.746" x2="22.683" y1="25.846" y2="27.924" gradientUnits="userSpaceOnUse"><stop stop-color="#c76648"/><stop offset="1" stop-color="#c86b4d" stop-opacity="0"/></linearGradient><linearGradient id="g" x1="20.23" x2="20.871" y1="27.155" y2="27.331" gradientUnits="userSpaceOnUse"><stop stop-color="#c76648"/><stop offset="1" stop-color="#c86b4d" stop-opacity="0"/></linearGradient><linearGradient id="h" x1="21.699" x2="21.699" y1="29.729" y2="29.096" gradientUnits="userSpaceOnUse"><stop stop-color="#cc6c84"/><stop offset="1" stop-color="#cc6c84" stop-opacity="0"/></linearGradient><linearGradient id="i" x1="13.352" x2="13.352" y1="30.516" y2="28.502" gradientUnits="userSpaceOnUse"><stop stop-color="#cc6c84"/><stop offset="1" stop-color="#cc6c84" stop-opacity="0"/></linearGradient><linearGradient id="n" x1="14.262" x2="14.262" y1="31.659" y2="28.846" gradientUnits="userSpaceOnUse"><stop stop-color="#db7d59"/><stop offset=".963" stop-color="#db7d59" stop-opacity="0"/></linearGradient><linearGradient id="o" x1="28.324" x2="27.652" y1="28.721" y2="28.721" gradientUnits="userSpaceOnUse"><stop stop-color="#db7d59"/><stop offset=".963" stop-color="#db7d59" stop-opacity="0"/></linearGradient><linearGradient id="t" x1="5.722" x2="5.722" y1="26.815" y2="25.502" gradientUnits="userSpaceOnUse"><stop stop-color="#cc6c84"/><stop offset="1" stop-color="#cc6c84" stop-opacity="0"/></linearGradient><linearGradient id="v" x1="4.262" x2="5.293" y1="26.909" y2="24.971" gradientUnits="userSpaceOnUse"><stop stop-color="#cc6c84"/><stop offset=".839" stop-color="#cc6c84" stop-opacity="0"/></linearGradient><linearGradient id="x" x1="19.024" x2="19.024" y1="26.738" y2="25.284" gradientUnits="userSpaceOnUse"><stop stop-color="#cc6c84"/><stop offset="1" stop-color="#cc6c84" stop-opacity="0"/></linearGradient><linearGradient id="z" x1="25.262" x2="24.574" y1="26.252" y2="25.752" gradientUnits="userSpaceOnUse"><stop stop-color="#dfa27a"/><stop offset="1" stop-color="#dfa27a" stop-opacity="0"/></linearGradient><linearGradient id="A" x1="13.371" x2="13.98" y1="25.471" y2="25.752" gradientUnits="userSpaceOnUse"><stop stop-color="#dfa27a"/><stop offset="1" stop-color="#dfa27a" stop-opacity="0"/></linearGradient><linearGradient id="H" x1="21.699" x2="21.699" y1="25.002" y2="22.065" gradientUnits="userSpaceOnUse"><stop stop-color="#8a3e68"/><stop offset="1" stop-color="#8a3e68" stop-opacity="0"/></linearGradient><linearGradient id="T" x1="8.307" x2="7.728" y1="22.395" y2="22.395" gradientUnits="userSpaceOnUse"><stop offset=".225" stop-color="#594c4f"/><stop offset="1" stop-color="#392833"/></linearGradient><linearGradient id="U" x1="8.463" x2="8.463" y1="23.428" y2="22.473" gradientUnits="userSpaceOnUse"><stop stop-color="#492847"/><stop offset="1" stop-color="#552d52" stop-opacity="0"/></linearGradient><linearGradient id="Y" x1="10.809" x2="13.402" y1="28.909" y2="23.987" gradientUnits="userSpaceOnUse"><stop stop-color="#ffcd9f"/><stop offset="1" stop-color="#ffcd9f" stop-opacity="0"/></linearGradient><linearGradient id="aa" x1="17.543" x2="19.251" y1="9.284" y2="11.604" gradientUnits="userSpaceOnUse"><stop stop-color="#bd7e76"/><stop offset="1" stop-color="#bd7e76" stop-opacity="0"/></linearGradient><linearGradient id="ac" x1="22.527" x2="22.543" y1="8.956" y2="11.44" gradientUnits="userSpaceOnUse"><stop stop-color="#bd7e76"/><stop offset="1" stop-color="#bd7e76" stop-opacity="0"/></linearGradient><linearGradient id="ae" x1="27.014" x2="25.653" y1="10.965" y2="13.456" gradientUnits="userSpaceOnUse"><stop stop-color="#bd7e76"/><stop offset="1" stop-color="#bd7e76" stop-opacity="0"/></linearGradient><linearGradient id="ag" x1="29.009" x2="26.352" y1="14.859" y2="15.856" gradientUnits="userSpaceOnUse"><stop stop-color="#bd7e76"/><stop offset="1" stop-color="#bd7e76" stop-opacity="0"/></linearGradient><linearGradient id="ai" x1="30.043" x2="27.574" y1="18.096" y2="17.721" gradientUnits="userSpaceOnUse"><stop stop-color="#bd7e76"/><stop offset="1" stop-color="#bd7e76" stop-opacity="0"/></linearGradient><linearGradient id="ak" x1="29.757" x2="27.288" y1="21.605" y2="21.23" gradientUnits="userSpaceOnUse"><stop stop-color="#bd7e76"/><stop offset="1" stop-color="#bd7e76" stop-opacity="0"/></linearGradient><linearGradient id="al" x1="13.105" x2="12.637" y1="19.721" y2="20.643" gradientUnits="userSpaceOnUse"><stop stop-color="#cc6c84"/><stop offset="1" stop-color="#cc6c84" stop-opacity="0"/></linearGradient><linearGradient id="am" x1="10.777" x2="10.082" y1="17.987" y2="18.221" gradientUnits="userSpaceOnUse"><stop stop-color="#c5753c"/><stop offset="1" stop-color="#c5753c" stop-opacity="0"/></linearGradient><filter id="F" width="24.091" height="16.765" x="6.002" y="7.935" color-interpolation-filters="sRGB" filterUnits="userSpaceOnUse"><feFlood flood-opacity="0" result="BackgroundImageFix"/><feBlend in="SourceGraphic" in2="BackgroundImageFix" result="shape"/><feColorMatrix in="SourceAlpha" result="hardAlpha" values="0 0 0 0 0 0 0 0 0 0 0 0 0 0 0 0 0 0 127 0"/><feOffset dx=".1" dy=".2"/><feGaussianBlur stdDeviation=".5"/><feComposite in2="hardAlpha" k2="-1" k3="1" operator="arithmetic"/><feColorMatrix values="0 0 0 0 0.596078 0 0 0 0 0.47451 0 0 0 0 0.454902 0 0 0 1 0"/><feBlend in2="shape" result="effect1_innerShadow_28327_4022"/></filter><filter id="W" width="2.953" height="5.844" x="25.699" y="24.065" color-interpolation-filters="sRGB" filterUnits="userSpaceOnUse"><feFlood flood-opacity="0" result="BackgroundImageFix"/><feBlend in="SourceGraphic" in2="BackgroundImageFix" result="shape"/><feGaussianBlur result="effect1_foregroundBlur_28327_4022" stdDeviation=".5"/></filter><filter id="X" width="4.703" height="5.844" x="9.293" y="24.065" color-interpolation-filters="sRGB" filterUnits="userSpaceOnUse"><feFlood flood-opacity="0" result="BackgroundImageFix"/><feBlend in="SourceGraphic" in2="BackgroundImageFix" result="shape"/><feGaussianBlur result="effect1_foregroundBlur_28327_4022" stdDeviation=".5"/></filter><filter id="Z" width="4.403" height="4.216" x="17.287" y="8.309" color-interpolation-filters="sRGB" filterUnits="userSpaceOnUse"><feFlood flood-opacity="0" result="BackgroundImageFix"/><feBlend in="SourceGraphic" in2="BackgroundImageFix" result="shape"/><feGaussianBlur result="effect1_foregroundBlur_28327_4022" stdDeviation=".3"/></filter><filter id="ab" width="4.106" height="4.216" x="21.506" y="7.824" color-interpolation-filters="sRGB" filterUnits="userSpaceOnUse"><feFlood flood-opacity="0" result="BackgroundImageFix"/><feBlend in="SourceGraphic" in2="BackgroundImageFix" result="shape"/><feGaussianBlur result="effect1_foregroundBlur_28327_4022" stdDeviation=".3"/></filter><filter id="ad" width="3.434" height="4.817" x="24.787" y="10.114" color-interpolation-filters="sRGB" filterUnits="userSpaceOnUse"><feFlood flood-opacity="0" result="BackgroundImageFix"/><feBlend in="SourceGraphic" in2="BackgroundImageFix" result="shape"/><feGaussianBlur result="effect1_foregroundBlur_28327_4022" stdDeviation=".3"/></filter><filter id="af" width="4.106" height="2.356" x="26.006" y="14.184" color-interpolation-filters="sRGB" filterUnits="userSpaceOnUse"><feFlood flood-opacity="0" result="BackgroundImageFix"/><feBlend in="SourceGraphic" in2="BackgroundImageFix" result="shape"/><feGaussianBlur result="effect1_foregroundBlur_28327_4022" stdDeviation=".3"/></filter><filter id="ah" width="2.497" height="2.716" x="27.693" y="17.106" color-interpolation-filters="sRGB" filterUnits="userSpaceOnUse"><feFlood flood-opacity="0" result="BackgroundImageFix"/><feBlend in="SourceGraphic" in2="BackgroundImageFix" result="shape"/><feGaussianBlur result="effect1_foregroundBlur_28327_4022" stdDeviation=".3"/></filter><filter id="aj" width="2.395" height="2.684" x="27.756" y="20.527" color-interpolation-filters="sRGB" filterUnits="userSpaceOnUse"><feFlood flood-opacity="0" result="BackgroundImageFix"/><feBlend in="SourceGraphic" in2="BackgroundImageFix" result="shape"/><feGaussianBlur result="effect1_foregroundBlur_28327_4022" stdDeviation=".3"/></filter></defs></svg>