<svg xmlns="http://www.w3.org/2000/svg" width="32" height="32" fill="none" viewBox="0 0 32 32"><path fill="url(#a)" d="m21.99 18-8-15v15z"/><path fill="url(#b)" d="m7.99 18 5-12v12z"/><path fill="url(#c)" d="m7.99 18 5-12v12z"/><path fill="url(#d)" d="m7.99 18 5-12v12z"/><g filter="url(#e)"><path fill="url(#f)" d="M13.49 2a.5.5 0 0 0-.5.5v15.45a.05.05 0 0 1-.05.05H7.49a.5.5 0 0 0 0 1h5.45a.05.05 0 0 1 .05.05v1.637a.5.5 0 1 0 1 0V19.05a.05.05 0 0 1 .05-.05h8.45a.5.5 0 0 0 0-1h-8.45a.05.05 0 0 1-.05-.05V2.5a.5.5 0 0 0-.5-.5"/></g><g filter="url(#g)"><path fill="url(#h)" d="M13.49 2a.5.5 0 0 0-.5.5v15.45a.05.05 0 0 1-.05.05H7.49a.5.5 0 0 0 0 1h5.45a.05.05 0 0 1 .05.05v1.637a.5.5 0 1 0 1 0V19.05a.05.05 0 0 1 .05-.05h8.45a.5.5 0 0 0 0-1h-8.45a.05.05 0 0 1-.05-.05V2.5a.5.5 0 0 0-.5-.5"/></g><rect width="24" height="2" x="3.99" y="20" fill="url(#i)" rx="1"/><rect width="24" height="2" x="3.99" y="20" fill="url(#j)" rx="1"/><path fill="url(#k)" d="m8.99 27-3-5h21v5z"/><path fill="url(#l)" d="m8.99 27-3-5h21v5z"/><path fill="url(#m)" d="m8.99 27-3-5h21v5z"/><g filter="url(#n)"><path fill="url(#o)" d="M30 24c-1.75 0-1.75 1-3.51 1-1.75 0-1.75-1-3.51-1-1.75 0-1.74 1-3.49 1s-1.76-1-3.51-1-1.74 1-3.49 1-1.76-1-3.51-1-1.75 1-3.49 1c-1.75 0-1.75-1-3.5-1v6h28z"/></g><defs><linearGradient id="b" x1="8.811" x2="12.99" y1="16.188" y2="16.188" gradientUnits="userSpaceOnUse"><stop stop-color="#ffa251"/><stop offset="1" stop-color="#ffba57"/></linearGradient><linearGradient id="c" x1="13.103" x2="12.752" y1="15.449" y2="15.449" gradientUnits="userSpaceOnUse"><stop stop-color="#d7976c"/><stop offset="1" stop-color="#d7976c" stop-opacity="0"/></linearGradient><linearGradient id="d" x1="10.49" x2="10.865" y1="11.844" y2="12" gradientUnits="userSpaceOnUse"><stop stop-color="#fda150"/><stop offset="1" stop-color="#fda150" stop-opacity="0"/></linearGradient><linearGradient id="f" x1="13.99" x2="13.99" y1="19.152" y2="2.677" gradientUnits="userSpaceOnUse"><stop stop-color="#fff8f6"/><stop offset="1" stop-color="#fff"/></linearGradient><linearGradient id="h" x1="13.99" x2="13.99" y1="19.152" y2="2.677" gradientUnits="userSpaceOnUse"><stop stop-color="#fff8f6"/><stop offset="1" stop-color="#fff"/></linearGradient><linearGradient id="i" x1="15.99" x2="15.99" y1="18.5" y2="26.5" gradientUnits="userSpaceOnUse"><stop offset=".1" stop-color="#fe915d"/><stop offset=".285" stop-color="#ffa357"/><stop offset=".494" stop-color="#c74735"/></linearGradient><linearGradient id="j" x1="3.99" x2="4.936" y1="21" y2="21" gradientUnits="userSpaceOnUse"><stop stop-color="#c36c42"/><stop offset="1" stop-color="#c36c42" stop-opacity="0"/></linearGradient><linearGradient id="k" x1="16.49" x2="16.49" y1="22" y2="25.746" gradientUnits="userSpaceOnUse"><stop stop-color="#e65b50"/><stop offset="1" stop-color="#da5b4c"/></linearGradient><linearGradient id="l" x1="16.49" x2="16.49" y1="22" y2="22.539" gradientUnits="userSpaceOnUse"><stop stop-color="#c64733"/><stop offset="1" stop-color="#c64733" stop-opacity="0"/></linearGradient><linearGradient id="m" x1="7" x2="7.349" y1="23.677" y2="23.471" gradientUnits="userSpaceOnUse"><stop offset=".418" stop-color="#c64733"/><stop offset="1" stop-color="#c64733" stop-opacity="0"/></linearGradient><filter id="e" width="16" height="19.387" x="6.99" y="1.8" color-interpolation-filters="sRGB" filterUnits="userSpaceOnUse"><feFlood flood-opacity="0" result="BackgroundImageFix"/><feBlend in="SourceGraphic" in2="BackgroundImageFix" result="shape"/><feColorMatrix in="SourceAlpha" result="hardAlpha" values="0 0 0 0 0 0 0 0 0 0 0 0 0 0 0 0 0 0 127 0"/><feOffset dy="-.2"/><feGaussianBlur stdDeviation=".2"/><feComposite in2="hardAlpha" k2="-1" k3="1" operator="arithmetic"/><feColorMatrix values="0 0 0 0 0.901961 0 0 0 0 0.611765 0 0 0 0 0.576471 0 0 0 1 0"/><feBlend in2="shape" result="effect1_innerShadow_18_12128"/></filter><filter id="g" width="16.2" height="19.387" x="6.99" y="1.8" color-interpolation-filters="sRGB" filterUnits="userSpaceOnUse"><feFlood flood-opacity="0" result="BackgroundImageFix"/><feBlend in="SourceGraphic" in2="BackgroundImageFix" result="shape"/><feColorMatrix in="SourceAlpha" result="hardAlpha" values="0 0 0 0 0 0 0 0 0 0 0 0 0 0 0 0 0 0 127 0"/><feOffset dy="-.2"/><feGaussianBlur stdDeviation=".2"/><feComposite in2="hardAlpha" k2="-1" k3="1" operator="arithmetic"/><feColorMatrix values="0 0 0 0 0.901961 0 0 0 0 0.611765 0 0 0 0 0.576471 0 0 0 1 0"/><feBlend in2="shape" result="effect1_innerShadow_18_12128"/><feColorMatrix in="SourceAlpha" result="hardAlpha" values="0 0 0 0 0 0 0 0 0 0 0 0 0 0 0 0 0 0 127 0"/><feOffset dx=".2"/><feGaussianBlur stdDeviation=".2"/><feComposite in2="hardAlpha" k2="-1" k3="1" operator="arithmetic"/><feColorMatrix values="0 0 0 0 0.768627 0 0 0 0 0.662745 0 0 0 0 0.678431 0 0 0 1 0"/><feBlend in2="effect1_innerShadow_18_12128" result="effect2_innerShadow_18_12128"/></filter><filter id="n" width="28.61" height="6.6" x="1.39" y="24" color-interpolation-filters="sRGB" filterUnits="userSpaceOnUse"><feFlood flood-opacity="0" result="BackgroundImageFix"/><feBlend in="SourceGraphic" in2="BackgroundImageFix" result="shape"/><feColorMatrix in="SourceAlpha" result="hardAlpha" values="0 0 0 0 0 0 0 0 0 0 0 0 0 0 0 0 0 0 127 0"/><feOffset dx="-.6" dy=".6"/><feGaussianBlur stdDeviation=".3"/><feComposite in2="hardAlpha" k2="-1" k3="1" operator="arithmetic"/><feColorMatrix values="0 0 0 0 0.384314 0 0 0 0 0.67451 0 0 0 0 0.996078 0 0 0 1 0"/><feBlend in2="shape" result="effect1_innerShadow_18_12128"/><feColorMatrix in="SourceAlpha" result="hardAlpha" values="0 0 0 0 0 0 0 0 0 0 0 0 0 0 0 0 0 0 127 0"/><feOffset dy=".4"/><feGaussianBlur stdDeviation=".2"/><feComposite in2="hardAlpha" k2="-1" k3="1" operator="arithmetic"/><feColorMatrix values="0 0 0 0 0.305882 0 0 0 0 0.556863 0 0 0 0 0.882353 0 0 0 1 0"/><feBlend in2="effect1_innerShadow_18_12128" result="effect2_innerShadow_18_12128"/></filter><radialGradient id="a" cx="0" cy="0" r="1" gradientTransform="rotate(147.763 7.92 9.505)scale(7.10152 12.2009)" gradientUnits="userSpaceOnUse"><stop stop-color="#ffe85a"/><stop offset="1" stop-color="#ffc75b"/></radialGradient><radialGradient id="o" cx="0" cy="0" r="1" gradientTransform="matrix(0 -4.84893 21.462 0 18.84 30)" gradientUnits="userSpaceOnUse"><stop stop-color="#51a9ff"/><stop offset="1" stop-color="#529df9"/></radialGradient></defs></svg>